<?xml version="1.0" encoding="utf-8"?>
<!-- Generator: Adobe Illustrator 25.2.0, SVG Export Plug-In . SVG Version: 6.00 Build 0)  -->
<svg version="1.1" id="Layer_1" xmlns="http://www.w3.org/2000/svg" xmlns:xlink="http://www.w3.org/1999/xlink" x="0px" y="0px"
	 viewBox="0 0 1080 1080" style="enable-background:new 0 0 1080 1080;" xml:space="preserve">
<style type="text/css">
	.st0{fill:#B5B5B5;}
	.st1{fill:url(#SVGID_1_);}
	.st2{fill:url(#SVGID_2_);}
	.st3{fill:url(#SVGID_3_);}
	.st4{fill:#7E57C2;}
	.st5{opacity:0.7;fill:#FFFFFF;enable-background:new    ;}
	.st6{fill:none;stroke:#263238;stroke-width:1.1031;stroke-linecap:round;stroke-linejoin:round;stroke-dasharray:4.4124;}
	.st7{fill:#FFFFFF;stroke:#263238;stroke-width:1.1031;stroke-linecap:round;stroke-linejoin:round;}
	.st8{fill:#263238;}
	.st9{opacity:0.2;fill:#FFFFFF;enable-background:new    ;}
	.st10{fill:#7E57C2;stroke:#263238;stroke-width:1.1031;stroke-miterlimit:10;}
	.st11{fill:none;stroke:#263238;stroke-width:1.1031;stroke-miterlimit:10;}
	.st12{opacity:0.2;enable-background:new    ;}
	.st13{fill:#FFFFFF;stroke:#222221;stroke-width:1.1031;stroke-miterlimit:10;}
	.st14{fill:none;stroke:#263238;stroke-width:1.1031;stroke-linecap:round;stroke-linejoin:round;}
	.st15{fill:#FFFFFF;}
	.st16{opacity:0.5;fill:#FFFFFF;enable-background:new    ;}
	
		.st17{opacity:0.2;fill:none;stroke:#FFFFFF;stroke-width:1.1031;stroke-linecap:round;stroke-linejoin:round;enable-background:new    ;}
	.st18{fill:none;stroke:#FFFFFF;stroke-width:1.1031;stroke-linecap:round;stroke-linejoin:round;}
</style>
<g>
	<circle class="st0" cx="71.7" cy="582.6" r="4.3"/>
	<circle class="st0" cx="102.6" cy="582.6" r="4.3"/>
	<circle class="st0" cx="133.5" cy="582.6" r="4.3"/>
	<circle class="st0" cx="164.3" cy="582.6" r="4.3"/>
	<circle class="st0" cx="195.2" cy="582.6" r="4.3"/>
	<circle class="st0" cx="226.1" cy="582.6" r="4.3"/>
	<circle class="st0" cx="256.9" cy="582.6" r="4.3"/>
	<circle class="st0" cx="287.8" cy="582.6" r="4.3"/>
	<circle class="st0" cx="318.7" cy="582.6" r="4.3"/>
	<circle class="st0" cx="349.5" cy="582.6" r="4.3"/>
	<circle class="st0" cx="380.4" cy="582.6" r="4.3"/>
	<circle class="st0" cx="411.3" cy="582.6" r="4.3"/>
	<circle class="st0" cx="71.7" cy="611.2" r="4.3"/>
	<circle class="st0" cx="102.6" cy="611.2" r="4.3"/>
	<circle class="st0" cx="133.5" cy="611.2" r="4.3"/>
	<circle class="st0" cx="164.3" cy="611.2" r="4.3"/>
	<circle class="st0" cx="195.2" cy="611.2" r="4.3"/>
	<circle class="st0" cx="226.1" cy="611.2" r="4.3"/>
	<circle class="st0" cx="256.9" cy="611.2" r="4.3"/>
	<circle class="st0" cx="287.8" cy="611.2" r="4.3"/>
	<circle class="st0" cx="318.7" cy="611.2" r="4.3"/>
	<circle class="st0" cx="349.5" cy="611.2" r="4.3"/>
	<circle class="st0" cx="380.4" cy="611.2" r="4.3"/>
	<circle class="st0" cx="411.3" cy="611.2" r="4.3"/>
	<circle class="st0" cx="71.7" cy="639.9" r="4.3"/>
	<circle class="st0" cx="102.6" cy="639.9" r="4.3"/>
	<circle class="st0" cx="133.5" cy="639.9" r="4.3"/>
	<circle class="st0" cx="164.3" cy="639.9" r="4.3"/>
	<circle class="st0" cx="195.2" cy="639.9" r="4.3"/>
	<circle class="st0" cx="226.1" cy="639.9" r="4.3"/>
	<circle class="st0" cx="256.9" cy="639.9" r="4.3"/>
	<circle class="st0" cx="287.8" cy="639.9" r="4.3"/>
	<circle class="st0" cx="318.7" cy="639.9" r="4.3"/>
	<circle class="st0" cx="349.5" cy="639.9" r="4.3"/>
	<circle class="st0" cx="380.4" cy="639.9" r="4.3"/>
	<circle class="st0" cx="411.3" cy="639.9" r="4.3"/>
	<circle class="st0" cx="71.7" cy="668.5" r="4.3"/>
	<circle class="st0" cx="102.6" cy="668.5" r="4.3"/>
	<circle class="st0" cx="133.5" cy="668.5" r="4.3"/>
	<circle class="st0" cx="164.3" cy="668.5" r="4.3"/>
	<circle class="st0" cx="195.2" cy="668.5" r="4.3"/>
	<circle class="st0" cx="226.1" cy="668.5" r="4.3"/>
	<circle class="st0" cx="256.9" cy="668.5" r="4.3"/>
	<circle class="st0" cx="287.8" cy="668.5" r="4.3"/>
	<circle class="st0" cx="318.7" cy="668.5" r="4.3"/>
	<circle class="st0" cx="349.5" cy="668.5" r="4.3"/>
	<circle class="st0" cx="380.4" cy="668.5" r="4.3"/>
	<circle class="st0" cx="411.3" cy="668.5" r="4.3"/>
	<circle class="st0" cx="71.7" cy="697.1" r="4.3"/>
	<circle class="st0" cx="102.6" cy="697.1" r="4.3"/>
	<circle class="st0" cx="133.5" cy="697.1" r="4.3"/>
	<circle class="st0" cx="164.3" cy="697.1" r="4.3"/>
	<circle class="st0" cx="195.2" cy="697.1" r="4.3"/>
	<circle class="st0" cx="226.1" cy="697.1" r="4.3"/>
	<circle class="st0" cx="256.9" cy="697.1" r="4.3"/>
	<circle class="st0" cx="287.8" cy="697.1" r="4.3"/>
	<circle class="st0" cx="318.7" cy="697.1" r="4.3"/>
	<circle class="st0" cx="349.5" cy="697.1" r="4.3"/>
	<circle class="st0" cx="380.4" cy="697.1" r="4.3"/>
	<circle class="st0" cx="411.3" cy="697.1" r="4.3"/>
	<circle class="st0" cx="71.7" cy="725.8" r="4.3"/>
	<circle class="st0" cx="102.6" cy="725.8" r="4.3"/>
	<circle class="st0" cx="133.5" cy="725.8" r="4.3"/>
	<circle class="st0" cx="164.3" cy="725.8" r="4.3"/>
	<circle class="st0" cx="195.2" cy="725.8" r="4.3"/>
	<circle class="st0" cx="226.1" cy="725.8" r="4.3"/>
	<circle class="st0" cx="256.9" cy="725.8" r="4.3"/>
	<circle class="st0" cx="287.8" cy="725.8" r="4.3"/>
	<circle class="st0" cx="318.7" cy="725.8" r="4.3"/>
	<circle class="st0" cx="349.5" cy="725.8" r="4.3"/>
	<circle class="st0" cx="380.4" cy="725.8" r="4.3"/>
	<circle class="st0" cx="411.3" cy="725.8" r="4.3"/>
	<circle class="st0" cx="71.7" cy="754.4" r="4.3"/>
	<circle class="st0" cx="102.6" cy="754.4" r="4.3"/>
	<circle class="st0" cx="133.5" cy="754.4" r="4.3"/>
	<circle class="st0" cx="164.3" cy="754.4" r="4.3"/>
	<circle class="st0" cx="195.2" cy="754.4" r="4.3"/>
	<circle class="st0" cx="226.1" cy="754.4" r="4.3"/>
	<circle class="st0" cx="256.9" cy="754.4" r="4.3"/>
	<circle class="st0" cx="287.8" cy="754.4" r="4.3"/>
	<circle class="st0" cx="318.7" cy="754.4" r="4.3"/>
	<circle class="st0" cx="349.5" cy="754.4" r="4.3"/>
	<circle class="st0" cx="380.4" cy="754.4" r="4.3"/>
	<circle class="st0" cx="411.3" cy="754.4" r="4.3"/>
	<circle class="st0" cx="71.7" cy="783.1" r="4.3"/>
	<circle class="st0" cx="102.6" cy="783.1" r="4.3"/>
	<circle class="st0" cx="133.5" cy="783.1" r="4.3"/>
	<circle class="st0" cx="164.3" cy="783.1" r="4.3"/>
	<circle class="st0" cx="195.2" cy="783.1" r="4.3"/>
	<circle class="st0" cx="226.1" cy="783.1" r="4.3"/>
	<circle class="st0" cx="256.9" cy="783.1" r="4.3"/>
	<circle class="st0" cx="287.8" cy="783.1" r="4.3"/>
	<circle class="st0" cx="318.7" cy="783.1" r="4.3"/>
	<circle class="st0" cx="349.5" cy="783.1" r="4.3"/>
	<circle class="st0" cx="380.4" cy="783.1" r="4.3"/>
	<circle class="st0" cx="411.3" cy="783.1" r="4.3"/>
	<circle class="st0" cx="71.7" cy="811.7" r="4.3"/>
	<circle class="st0" cx="102.6" cy="811.7" r="4.3"/>
	<circle class="st0" cx="133.5" cy="811.7" r="4.3"/>
	<circle class="st0" cx="164.3" cy="811.7" r="4.3"/>
	<circle class="st0" cx="195.2" cy="811.7" r="4.3"/>
	<circle class="st0" cx="226.1" cy="811.7" r="4.3"/>
	<circle class="st0" cx="256.9" cy="811.7" r="4.3"/>
	<circle class="st0" cx="287.8" cy="811.7" r="4.3"/>
	<circle class="st0" cx="318.7" cy="811.7" r="4.3"/>
	<circle class="st0" cx="349.5" cy="811.7" r="4.3"/>
	<circle class="st0" cx="380.4" cy="811.7" r="4.3"/>
	<circle class="st0" cx="411.3" cy="811.7" r="4.3"/>
	<circle class="st0" cx="71.7" cy="840.4" r="4.3"/>
	<circle class="st0" cx="102.6" cy="840.4" r="4.3"/>
	<circle class="st0" cx="133.5" cy="840.4" r="4.3"/>
	<circle class="st0" cx="164.3" cy="840.4" r="4.3"/>
	<circle class="st0" cx="195.2" cy="840.4" r="4.3"/>
	<circle class="st0" cx="226.1" cy="840.4" r="4.3"/>
	<circle class="st0" cx="256.9" cy="840.4" r="4.3"/>
	<circle class="st0" cx="287.8" cy="840.4" r="4.3"/>
	<circle class="st0" cx="318.7" cy="840.4" r="4.3"/>
	<circle class="st0" cx="349.5" cy="840.4" r="4.3"/>
	<circle class="st0" cx="380.4" cy="840.4" r="4.3"/>
	<circle class="st0" cx="411.3" cy="840.4" r="4.3"/>
	<circle class="st0" cx="71.7" cy="869" r="4.3"/>
	<circle class="st0" cx="102.6" cy="869" r="4.3"/>
	<circle class="st0" cx="133.5" cy="869" r="4.3"/>
	<circle class="st0" cx="164.3" cy="869" r="4.3"/>
	<circle class="st0" cx="195.2" cy="869" r="4.3"/>
	<circle class="st0" cx="226.1" cy="869" r="4.3"/>
	<circle class="st0" cx="256.9" cy="869" r="4.3"/>
	<circle class="st0" cx="287.8" cy="869" r="4.3"/>
	<circle class="st0" cx="318.7" cy="869" r="4.3"/>
	<circle class="st0" cx="349.5" cy="869" r="4.3"/>
	<circle class="st0" cx="380.4" cy="869" r="4.3"/>
	<circle class="st0" cx="411.3" cy="869" r="4.3"/>
</g>
<linearGradient id="SVGID_1_" gradientUnits="userSpaceOnUse" x1="301.068" y1="163.8177" x2="924.5961" y2="787.3458">
	<stop  offset="0" style="stop-color:#D175D4"/>
	<stop  offset="1" style="stop-color:#7E57C2"/>
</linearGradient>
<circle class="st1" cx="612.8" cy="475.6" r="440.9"/>
<linearGradient id="SVGID_2_" gradientUnits="userSpaceOnUse" x1="745.6915" y1="828.1046" x2="994.2369" y2="990.3727">
	<stop  offset="0" style="stop-color:#00FFFF"/>
	<stop  offset="6.344910e-02" style="stop-color:#0EEDF8"/>
	<stop  offset="0.2628" style="stop-color:#36B8E5"/>
	<stop  offset="0.4491" style="stop-color:#558ED6"/>
	<stop  offset="0.617" style="stop-color:#6B70CB"/>
	<stop  offset="0.7604" style="stop-color:#795EC4"/>
	<stop  offset="0.8626" style="stop-color:#7E57C2"/>
</linearGradient>
<circle class="st2" cx="836.1" cy="887.1" r="85"/>
<linearGradient id="SVGID_3_" gradientUnits="userSpaceOnUse" x1="185.1452" y1="95.4013" x2="245.2702" y2="157.6625">
	<stop  offset="0" style="stop-color:#2EFF45"/>
	<stop  offset="0.1357" style="stop-color:#29F469"/>
	<stop  offset="0.3362" style="stop-color:#23E598"/>
	<stop  offset="0.5137" style="stop-color:#1FDBBA"/>
	<stop  offset="0.6596" style="stop-color:#1CD4CF"/>
	<stop  offset="0.7559" style="stop-color:#1BD2D7"/>
</linearGradient>
<circle class="st3" cx="215.2" cy="126.5" r="43.3"/>
<g>
	<g id="freepik--background-simple--inject-2">
		<path class="st4" d="M931.9,398C856.5,268.7,651.5,314.7,609.9,252c-21.4-32.2-45.4-69.6-80.1-88.9c-33.2-18.6-71.6-25.1-105-22.6
			c-119.6,8.8-170.2,115.7-147.3,233.3C308,530.3,446.9,690.5,612,691.6c86.3,0.6,168.9-30.4,233.4-73.9l1.4-0.9
			C911.5,572.8,989.7,496.7,931.9,398z"/>
		<path class="st5" d="M931.9,398C856.5,268.7,651.5,314.7,609.9,252c-21.4-32.2-45.4-69.6-80.1-88.9c-33.2-18.6-71.6-25.1-105-22.6
			c-119.6,8.8-170.2,115.7-147.3,233.3C308,530.3,446.9,690.5,612,691.6c86.3,0.6,168.9-30.4,233.4-73.9l1.4-0.9
			C911.5,572.8,989.7,496.7,931.9,398z"/>
	</g>
	<g id="freepik--Lines--inject-2">
		<path class="st6" d="M345.9,407.5h-8.4c-18.7,0-33.9,15.2-33.9,33.9v186.4c0,18.7,15.2,33.9,33.9,33.9h115.3
			c18.7,0,33.9-15.2,33.9-33.9l0,0"/>
		<path class="st6" d="M477.3,231.5v-36.7c0-11.5,9.3-20.8,20.8-20.8h149.8c11.5,0,20.8,9.3,20.8,20.8l0,0"/>
	</g>
	<g id="freepik--Window--inject-2">
		<path class="st7" d="M891.7,280.9v279c0,19.1-15.3,34.4-34.4,34.4H366.8c-19.1,0-34.4-15.3-34.4-34.4v-279c0-0.8,0-1.5,0.2-2.5
			c1.2-18,16.3-31.9,34.2-31.9h490.6c18.1,0,33,13.9,34.2,32.1C891.7,279.4,891.7,280.2,891.7,280.9z"/>
		<path class="st8" d="M349.2,291.5h527.6l0,0v257.6c0,17.8-14.4,32.2-32.2,32.2H381.4c-17.8,0-32.2-14.4-32.2-32.2L349.2,291.5
			L349.2,291.5L349.2,291.5z"/>
		<path class="st9" d="M876.8,291.5v257.6c0.2,17.7-14.1,32.1-31.9,32.2h-464c-17.7-0.2-31.9-14.6-31.9-32.2V291.5H876.8z"/>
		<path class="st10" d="M891.7,278.6H332.4c1.2-18,16.3-31.9,34.2-31.9h490.6C875.4,246.7,890.4,260.6,891.7,278.6z"/>
		<path class="st8" d="M401.2,262.5c0,3.4-2.8,6-6,6s-6-2.8-6-6c0-3.3,2.8-6,6-6S401.2,259.2,401.2,262.5L401.2,262.5z"/>
		<path class="st8" d="M426.9,262.5c0,3.4-2.8,6-6,6s-6-2.8-6-6c0-3.3,2.8-6,6-6S426.9,259.2,426.9,262.5L426.9,262.5z"/>
		<circle class="st8" cx="446.6" cy="262.5" r="6"/>
		<path class="st11" d="M876.8,291.5v257.6c0,17.8-14.4,32.2-32.2,32.2H381.4c-15.3,0-28.7-10.8-31.6-26v-0.2
			c-0.5-2-0.6-4.2-0.6-6.2V291.5H876.8z"/>
		<path class="st8" d="M876.2,331.3c-2.3-1.2-4.6-2.3-7.1-2.9l-2.9-13h-12.2l-2.9,13c-2.5,0.6-5,1.7-7.1,2.9l-11.2-7.1l-8.7,8.7
			l7,11.2c-1.2,2.3-2.3,4.6-2.9,7.1l-13,2.9v12.2l13,2.9c0.6,2.5,1.7,5,2.9,7.3l-7.1,11.2l8.7,8.7l11.2-7.1c2.3,1.2,4.6,2.3,7.1,2.9
			l2.9,12.9h12.2l2.9-12.9c2.5-0.8,5-1.7,7.1-2.9l0.6,0.3V331L876.2,331.3z M860,376.2c-8.8,0-16-7.1-16-16s7.1-16,16-16
			c8.8,0,16,7.1,16,16l0,0C876,369.1,868.9,376.2,860,376.2L860,376.2z"/>
		<path class="st8" d="M654.6,343.8V318l-27.3-6c-1.4-5.3-3.6-10.4-6.2-15.2l3.3-5.3H495.7l3.3,5.1c-2.6,4.8-4.8,9.9-6.2,15.2
			l-27.3,6v25.9l27.3,6c1.4,5.3,3.6,10.4,6.2,15.2l-15,23.5l18.4,18.3l23.5-15c4.8,2.6,9.9,4.8,15.2,6.4l6,27.3H573l6-27.3
			c5.3-1.5,10.4-3.6,15-6.4l23.5,15l18.3-18.3L621,364.9c2.6-4.8,4.6-9.9,6.2-15.2L654.6,343.8z M560.1,364.3
			c-18.4,0-33.5-15-33.5-33.5s15-33.5,33.5-33.5c18.4,0,33.5,15,33.5,33.5S578.6,364.3,560.1,364.3L560.1,364.3L560.1,364.3z"/>
		<path class="st8" d="M482.5,521.8l1.1-20.6l-21.4-6c-0.9-4.2-2.5-8.4-4.3-12.2l12.9-18.1L457,449.5l-19.4,10.8
			c-3.7-2.3-7.6-4.2-11.8-5.6l-3.7-21.8l-20.6-0.9l-5.9,21.4c-4.2,0.9-8.4,2.5-12.2,4.3l-18.1-12.9l-15.3,13.8l11,19.4
			c-2.3,3.7-4.2,7.6-5.6,11.8l-6.2,1.1v27.9l4.5,1.2c0.9,4.2,2.3,8.4,4.3,12.2l-8.8,12.4l0.6,10.7v0.2l9.1,10.2l19.4-10.8
			c3.7,2.3,7.6,4.3,11.8,5.7l3.6,21.1l0,0l0.2,0.9l20.6,1.1l0.5-2l0,0l5.4-19.4c4.2-0.9,8.4-2.5,12.2-4.3l18,12.9l15.3-13.8
			L455,537.6c2.3-3.7,4.2-7.6,5.6-11.8L482.5,521.8z M427.9,489.6c-9.9-11-26.6-11.8-37.6-2c-11,9.9-11.8,26.6-2,37.6
			c9.9,11,26.6,11.8,37.6,2l0,0C436.8,517.5,437.6,500.6,427.9,489.6L427.9,489.6z"/>
		<path class="st8" d="M647.1,491.1c0.8-3.3,1.2-6.5,1.2-9.8l14.7-7.7l-4-15l-16.7,0.8c-1.7-2.8-3.7-5.4-6-7.7l5-16l-13.5-7.7
			l-11.3,12.2c-3.3-0.8-6.5-1.2-9.8-1.2l-7.7-14.9l-15,4l0.8,16.7c-2.8,1.7-5.4,3.7-7.7,6l-16-5l-7.7,13.5l12.4,11.3
			c-0.8,3.3-1.2,6.5-1.2,9.8l-14.9,7.7l4,15l16.7-0.8c1.7,2.8,3.7,5.4,6,7.7l-5,16l13.5,7.7l11.2-12.2c3.3,0.8,6.5,1.2,9.8,1.2
			l7.7,14.9l15-4l-0.6-14.3l-0.2-2.5c2.8-1.7,5.4-3.7,7.9-6l16,5l6.7-11.5l1.1-2L647.1,491.1z M611.6,500.3
			c-10.7,2.9-21.8-3.4-24.8-14.1c-2.9-10.7,3.4-21.8,14.1-24.8c10.7-2.9,21.8,3.4,24.8,14.1v0.2
			C628.6,486.3,622.3,497.3,611.6,500.3L611.6,500.3z"/>
		<path class="st8" d="M818.5,517.5l3.4-20.6l-20.9-8.4c-0.5-4.3-1.5-8.7-2.9-12.9l15-16.7l-12.1-17l-20.8,8.8
			c-3.4-2.8-7.1-5.1-11.2-7l-1.2-22.5l-20.6-3.4l-8.5,20.8c-4.3,0.5-8.7,1.5-12.9,2.9l-16.7-15l-17,12.1l8.8,20.8
			c-2.5,3.1-4.5,6.4-6.2,9.8c-0.2,0.5-0.5,0.9-0.8,1.4l-22.5,1.2l-3.4,20.6l3.4,1.4l17.5,7c0.5,4.3,1.5,8.7,2.9,12.9l-15,16.9
			l12.2,17l20.8-8.8c3.4,2.8,7.1,5.1,11.2,7l1.2,22.3l20.6,3.4l8.4-20.6c4.3-0.5,8.7-1.5,12.9-2.9l16.7,15l17-12.2l-8.8-20.8
			c2.8-3.4,5.1-7.3,7-11.2L818.5,517.5z M760.8,516.6c-12.1,8.7-29,5.9-37.6-6.2s-5.9-29,6.2-37.6c12.1-8.7,29-5.9,37.6,6.2l0,0
			C775.6,491.1,772.8,507.9,760.8,516.6L760.8,516.6z"/>
	</g>
	<g id="freepik--Graphics--inject-2">
		<path class="st10" d="M377.4,365.1h162c11.2,0,20.3,9.1,20.3,20.3v224.3c0,11.2-9.1,20.3-20.3,20.3h-162
			c-11.2,0-20.3-9.1-20.3-20.3V385.3C357.1,374,366.2,365.1,377.4,365.1z"/>
		<path class="st12" d="M377.4,365.1h162c11.2,0,20.3,9.1,20.3,20.3v224.3c0,11.2-9.1,20.3-20.3,20.3h-162
			c-11.2,0-20.3-9.1-20.3-20.3V385.3C357.1,374,366.2,365.1,377.4,365.1z"/>
		<path class="st7" d="M578.6,405.3v224.3c0,11.2-9.1,20.3-20.3,20.3l0,0h-162c-11.2,0-20.3-9.1-20.3-20.3l0,0V405.3
			c0-11.2,9.1-20.3,20.3-20.3h162C569.4,385,578.6,394.2,578.6,405.3L578.6,405.3z"/>
		<path class="st10" d="M578.6,405.3v12.1H376v-12.1c0-11.2,9.1-20.3,20.3-20.3h162C569.4,385,578.6,394.2,578.6,405.3L578.6,405.3z
			"/>
		<rect x="395" y="431.2" class="st4" width="49.9" height="8.4"/>
		<rect x="395" y="506.2" class="st4" width="49.9" height="8.4"/>
		<rect x="395" y="574.2" class="st4" width="49.9" height="8.4"/>
		<rect x="395" y="452" class="st8" width="141.6" height="6.2"/>
		<rect x="395" y="463.7" class="st8" width="116" height="6"/>
		<rect x="395" y="475.2" class="st8" width="131.2" height="6"/>
		<rect x="395" y="486.8" class="st8" width="131.2" height="6"/>
		<rect x="395" y="520" class="st8" width="141.6" height="6.2"/>
		<rect x="395" y="531.7" class="st8" width="116" height="6"/>
		<rect x="395" y="543.2" class="st8" width="131.2" height="6"/>
		<rect x="395" y="594.6" class="st8" width="141.6" height="6.2"/>
		<rect x="395" y="606.2" class="st8" width="116" height="6"/>
		<rect x="395" y="617.9" class="st8" width="131.2" height="6"/>
		<path class="st13" d="M806.9,229.5v90.6c0,13.3-10.8,24.2-24.2,24.2l0,0H573.9c-13.3,0-24.2-10.8-24.2-24.2l0,0v-90.6
			c0-13.3,10.8-24.2,24.2-24.2h208.8C796.1,205.3,806.9,216.2,806.9,229.5z"/>
		<path class="st10" d="M806.9,229.5v2H549.6v-2c0-13.3,10.8-24.2,24.2-24.2h208.8C796.1,205.3,806.9,216.2,806.9,229.5z"/>
		<path class="st8" d="M587.4,222.7c-1.4,1.4-3.9,1.4-5.3,0s-1.4-3.9,0-5.3s3.9-1.4,5.3,0l0,0C588.8,219,588.8,221.3,587.4,222.7z"
			/>
		<path class="st8" d="M604.6,222.7c-1.4,1.4-3.9,1.4-5.3,0s-1.4-3.9,0-5.3s3.9-1.4,5.3,0l0,0C606.2,219,606.2,221.3,604.6,222.7z"
			/>
		<path class="st8" d="M622,222.7c-1.4,1.4-3.9,1.4-5.3,0s-1.4-3.9,0-5.3s3.9-1.4,5.3,0l0,0C623.3,219,623.3,221.3,622,222.7z"/>
		<rect x="566" y="248.3" class="st6" width="84.1" height="72.7"/>
		<rect x="663.2" y="248.3" class="st8" width="96.8" height="5.1"/>
		<rect x="663.2" y="258.8" class="st8" width="74.2" height="5.1"/>
		<rect x="663.2" y="269.3" class="st8" width="110.6" height="5.1"/>
		<rect x="663.2" y="279.5" class="st8" width="94.2" height="5.1"/>
		<path class="st7" d="M766.6,454.4H814c5.6,0,10.1,4.5,10.1,10.1v27.9c0,5.6-4.5,10.1-10.1,10.1h-47.4c-5.6,0-10.1-4.5-10.1-10.1
			v-27.7C756.4,459.1,761.1,454.4,766.6,454.4z"/>
		<polyline class="st14" points="778.3,469 765.2,477.1 777.3,487.7 		"/>
		<polyline class="st14" points="802,488.5 813.6,478.6 800.1,469.8 		"/>
		<line class="st14" x1="784.6" y1="494.7" x2="794.2" y2="464.7"/>
	</g>
	<path class="st4" d="M684.7,756.5c0,0-44.9,12.9-51.1,15.2c-5.7,2-21.2,7.4-32.7,5.7c-1.1-0.2-2.2-0.5-3.3-0.8
		c-11.8-3.6-17-6.8-18.6-14.1s4.3-12.9,9.9-16.3c5.6-3.4,36.2-7.1,36.2-7.1l7.4,2.2l0,0L684.7,756.5z"/>
	<path class="st15" d="M600.7,777.3c-1.1-0.2-2.2-0.5-3.3-0.8c-11.8-3.6-17-6.8-18.6-14.1s4.3-12.9,9.9-16.3
		c5.6-3.4,36.2-7.1,36.2-7.1l7.4,2.2c-6.7,3.1-31.6,4.8-37,7.9c-5.4,3.1-8.1,9-4.8,17C592.2,770.3,596.7,774.3,600.7,777.3z"/>
	<path class="st14" d="M677.9,758.2c0,0-33.8,8.7-47.1,14.3c-13.3,5.6-38.9,8.1-48-3.4s-1.1-21.5,8.1-23.7s27.4-5.7,37.5-4.3"/>
	<path class="st14" d="M601.4,776.6c0,0-17.2-9.4-11.5-22.6c4.2-9.8,27.1-7.6,38.4-13"/>
	<path class="st4" d="M821.5,779.4c-0.5,4.6-2.2,9-6.8,11.8c-3.1,1.9-7.4,2.9-13.8,2.8c-15.8-0.2-45.4-11.5-45.4-11.5l-27.7-15.3
		l14.4-22.8l3.9-6.2l10.2,2.3c0,0,8.5,4.8,16.9,8.5s29.1,4.6,36.4,10.5C816.8,765.5,822.3,771.7,821.5,779.4z"/>
	<path class="st15" d="M821.5,779.4c-0.5,4.6-2.2,9-6.8,11.8c1.4-4.5,1.1-9.4-0.8-13.8c-3.1-7-13.2-13.2-26.5-14.1
		s-23.4-7.3-28.7-10.1c-4.2-2.2-12.9-6.8-16.6-8.8l3.9-6.2l10.2,2.3c0,0,8.5,4.8,16.9,8.5s29.1,4.6,36.4,10.5
		C816.8,765.5,822.3,771.7,821.5,779.4z"/>
	<path class="st14" d="M734,771.5c20,11.6,42,19.2,64.9,22.2c5.1,0.6,10.8,0.8,14.3-3.1c1.9-2.2,2.6-5.1,2.3-7.9
		c-0.6-7.1-6.7-12.7-13.2-15.6c-6.5-2.9-13.8-3.4-20.8-5.1c-7-1.5-13.6-4-20-7.3c-5-2.6-9.9-5.7-15.3-7c-5.4-1.2-12.1,0.3-15,5.1"/>
	<path class="st14" d="M811.3,792.4c5.3-2.5,9-7.4,10.1-13.2c0.9-6.7-2.8-13.5-8.2-17.7c-5.4-4.2-12.1-6-18.7-7.4
		c-6.7-1.4-13.5-2.3-19.8-4.8c-9.8-3.9-19.4-11.3-29.4-8.7"/>
	<path class="st4" d="M765.2,531.6l-46.9-17.8l-0.6-0.2c0,0,0.2-1.2,0.3-3.1c0.3-3.7,0.5-9.9-1.4-11.9c-2.6-3.1-10.1-0.5-17.2-3.9
		c-7.1-3.4-20.6,2.6-20.6,2.6s-9.6-1.7-13.9,5.3c-2.2,5.6-1.4,13.9-1.4,13.9l-0.9,0.3c-5.6,2.2-35.9,13.5-42.4,18.1
		c-7.1,5-15,56.7-17.5,71.9c-2.5,15.2-7,28.8-4.8,34.1c2.2,5.3,35,30.4,53.8,36.9c18.7,6.5,85.5,4.6,85.5,4.6s1.1-0.3,3.1-0.9
		c11.3-3.6,51.3-18.6,72.5-53.8C812.8,627.8,792.2,560.4,765.2,531.6z M638.5,618.5c-3.4,2.5-1.5,11.9-1.5,11.9l-5.9-5.1l14.7-36.2
		l6.4,27.9C652.2,616.8,641.9,616,638.5,618.5z M756.4,641.6c-1.5,0.8,4.6-16.6,1.7-20.6s-11.9-3.6-11.9-3.6l0.8-4.8l5.3-27.3
		l1.7-2.2c0,0,18.3,31.3,21.5,42.3C775.5,625.6,755.6,641.6,756.4,641.6z"/>
	<path class="st15" d="M676.6,418.3l-24.2,25.7c0,0-3.3,2.9-2,10.4c1.2,7.4,4.5,13.9,6.8,14.4c1.9,0.3,3.7,0.5,5.6,0.5
		c0,0,5.3,11.3,8.8,15.6c0,0,1.2,17.3,0.6,22.2c0,0,8.7,7.6,16.9,8.5c8.2,0.9,20.9-11.6,20.9-11.6l3.1-15.3c0,0,7.4-11.3,7.9-14.3
		c0.5-2.9,3.9-2.2,5.6-3.7c1.7-1.5,5.6-8.1,6.2-14.4s0.6-13.5-6.5-11.3c-6.4-1.7-2.3-15-2.3-15l-11-9.8L676.6,418.3z"/>
	<path class="st16" d="M718.3,513.6c-0.3,0.9-0.8,1.9-1.2,2.8c-4,7.6-21.4,21.8-21.4,21.8l-5.3-16.3l-2.9,16.3
		c-5.9-2.5-23.5-17.8-23.5-17.8s-0.6-1.4-1.4-3.7l0.9-0.3c0,0-0.8-8.4,1.4-13.9c4.2-7,13.9-5.3,13.9-5.3s13.3-5.9,20.6-2.6
		c7.3,3.3,14.7,0.8,17.2,3.9c2.5,3.1,0.9,15,0.9,15L718.3,513.6z"/>
	<path class="st12" d="M765.2,531.6l-46.9-17.8l-0.6-0.2c0,0,0.2-1.2,0.3-3.1l-0.9,6l-7,9.4c7.4,2.8,14.7,5.9,21.7,9.6
		c6.8,3.7,10.8,11.2,9.9,18.9l-8.7,74l-3.6,42l10.7,11.2c11.3-3.6,51.3-18.6,72.5-53.8C812.8,627.8,792.2,560.4,765.2,531.6z
		 M756.4,641.6c-1.5,0.8,4.6-16.6,1.7-20.6s-11.9-3.6-11.9-3.6l0.8-4.8l5.3-27.3l1.7-2.2c0,0,18.3,31.3,21.5,42.3
		C775.5,625.6,755.6,641.6,756.4,641.6z"/>
	<path class="st12" d="M655.3,621l-7.3-24.3c0,0-13.2-44.6-22-55.6l2.3,31.4c0,0-7.7,37.5-14.9,48.6c-7.1,11.2-8.7,13.9,0,13.9
		s29.7,16.7,29.7,16.7l-1.5-13.9L655.3,621z M636.8,630.4l-5.9-5.1l14.7-36.2l6.4,27.9c0,0-10.1-0.8-13.6,1.7
		C634.8,621.1,636.8,630.4,636.8,630.4z"/>
	<path class="st14" d="M671.7,485.1c0,0,1.4,13.2,0,19.2"/>
	<path class="st14" d="M711.3,502.5c0-4.2,0.5-8.5,1.4-12.5"/>
	<path class="st14" d="M714.9,428.3c0,0,7.9,9.9,7.6,17.5c-0.3,7.6-0.9,16.6-0.8,25.3c0.2,8.7-14.1,27.1-21.4,28.8
		c-7.3,1.7-13.6,2-18.4-2.6c-4.8-4.6-9.4-11.2-15.5-19.5c-6-8.4-4.6-26.6-4.6-26.6"/>
	<path class="st8" d="M672.3,492.4c0,0,4.6,13,15.3,16.7c10.7,3.7,24.6-15.5,24.6-15.5l-0.8-2.5c0,0-9.1,11.9-19.4,9.9
		c-10.2-2-20.3-15.8-20.3-15.8L672.3,492.4z"/>
	<path class="st14" d="M662.9,469c0,0-6.4,2.2-7.9-2.6c-1.5-4.8-7.4-17.8-2.3-22.2c5.1-4.3,9,5.7,9,5.7"/>
	<path class="st14" d="M721.6,471.6c0,0,5.9,1.2,7.6-3.7c1.7-5,7.4-17.8,2.3-22.2c-5.1-4.3-9,5.7-9,5.7"/>
	<path class="st8" d="M661.5,462.3c2.2-0.3,4.2-1.5,5.6-3.3c0.8-1.5,1.4-3.3,1.5-5c0.6-3.3,0.9-6.7,0.9-9.9c0-1.2,0-2.6,0.3-3.9
		c0.5-1.2,1.2-2.5,2.2-3.4c2.2-2.6,4.8-4.8,7-7.4c2.3-2.5,3.4-5.9,3.1-9.3c9.8,8.1,22.5,11.3,34.9,9c11-2.2,21.7-11.9,20.4-24.2
		c-0.5-4.2-3.6-7.6-7.7-8.5c-5.4-1.4-10.4,1.5-15.3,3.4c-9,3.4-17.8-2.5-27-3.4c-7.7-0.9-17.3,0.2-21.5,7.9c0,0-13.9,1.7-20.1,13.2
		c-6.2,11.5,5.6,27.4,5.6,27.4s4.6-5.7,10.7,5.9L661.5,462.3z"/>
	<path class="st8" d="M715.8,425.3c0,0-3.6,18.9,5.9,28c0,0,2-5.7,4.2-7.1c3.1-6.8,2.5-14.7-1.7-20.9
		C717.2,414.3,715.8,425.3,715.8,425.3z"/>
	<path class="st17" d="M733,403.8c-1.7,5.3-5.7,9.4-10.8,11.3c-13.2,5.4-25.9-0.6-39-1.7c-10.7-0.9-22.6,8.7-23.4,19.8"/>
	<path class="st17" d="M651.7,430.1c0.3-8.8,5.7-16.7,13.9-20.3"/>
	<path class="st14" d="M668.6,502.5c5.7,6,12.7,10.8,20.4,13.9c0,0,15.6-4.6,23.7-15.5"/>
	<path class="st14" d="M671.7,497.3c-2.8,0.8-5.3,2.6-6.7,5.3c-2.5,4.3-0.9,18-0.9,18s12.7,12.5,23.5,17.8l3.3-18l5,18
		c0,0,16.7-11.8,21.4-21.8c0,0,1.5-11.6,0-15.5c-0.8-2.2-2.8-3.6-5-3.7"/>
	<path class="st14" d="M651.7,617.4c0,0-5-33.3-11.6-46.9"/>
	<path class="st14" d="M625.8,541c3.9,5.4,7.3,11.2,10.2,17.2"/>
	<path class="st14" d="M756.4,565.8c1.4-5.6,3.1-11,5.4-16.3"/>
	<path class="st14" d="M746.2,617.4c0,0,3.6-22.8,7.9-41.7"/>
	<path class="st14" d="M752.2,585.3c3.4-4.6,8.4-7.9,13.8-9.4"/>
	<path class="st14" d="M717.7,513.5c0,0,28.8,11.6,47.6,18.1c0,0,22.9,21.5,47.6,96.2c0,0-22.5,38-65.4,50"/>
	<path class="st14" d="M754.9,642.8l20.8-17.2c0,0,11-8.4,22.3-2.6"/>
	<path class="st14" d="M754.1,583.3c0,0,17,25.3,21.5,42.3"/>
	<path class="st14" d="M637,631.3l-6-5.7c0,0-9-1.5-19.2,5.3"/>
	<path class="st14" d="M630.9,625.6c0,0,7.6-24.8,14.9-37.5"/>
	<path class="st14" d="M663.5,516.4c0,0-41.5,15.6-45.5,20.1c-4,4.5-19.5,91.7-20,101.6c-0.3,9,32.1,29,48,37.3"/>
	<path class="st8" d="M694.6,546c0,1.5-1.2,2.8-2.8,2.8c-1.5,0-2.8-1.2-2.8-2.8s1.2-2.8,2.8-2.8l0,0
		C693.4,543.2,694.6,544.4,694.6,546C694.6,545.8,694.6,546,694.6,546z"/>
	<path class="st8" d="M742.6,691.9h-94.5c-1.2,0-2.2-0.9-2.2-2.2l0,0c0-1.2,0.9-2.2,2.2-2.2h94.5c1.2,0,2.2,0.9,2.2,2.2l0,0
		C745,690.8,743.9,691.9,742.6,691.9z"/>
	<path class="st7" d="M746,684.5l12.7-59.5c0.8-3.4-1.4-6.8-4.8-7.4c-0.5-0.2-0.9-0.2-1.4-0.2H642.1c-3.6,0-6.4,2.8-6.4,6.4
		c0,0.5,0,0.8,0.2,1.2l11.3,57.5c0.6,2.9,3.1,5,6,5.1l86.4,2C742.6,689.6,745.3,687.4,746,684.5z"/>
	<path class="st8" d="M705.6,651.6c0,4.8-4,8.8-8.8,8.8s-8.8-4-8.8-8.8s4-8.8,8.8-8.8C701.7,642.8,705.6,646.8,705.6,651.6
		L705.6,651.6z"/>
	<line class="st14" x1="723" y1="623" x2="736.1" y2="623"/>
	<line class="st14" x1="660.4" y1="623" x2="710.1" y2="623"/>
	<path class="st8" d="M746.2,747.7l-10.1,26.5c0,0-25.7-6.5-58.6-13.2c-34.4-7-70.3-16.1-88.9-48.8c-2.3-4-3.7-8.7-2.8-13.2
		c2.6-11.3,17.3-14.4,27.1-15.5c6-0.6,12.2-0.9,18.3-1.1c3.1,0,13.3-1.7,16,0.2c3.7,2.8,7.7,5.1,11.9,7.1c5.4,2.3,85.8-2.2,85.8-2.2
		c1.4-3.1,2.3-6.4,2.5-9.6c12.5-6.4,41.8-11.8,54.2-9.4c19.4,3.7,30.7,15,28.7,27C828.3,707.4,785.2,739,746.2,747.7z"/>
	<path class="st18" d="M746.2,747.7c0,0-24.5-6.5-44.3-20c-19.8-13.5-35.5-29.1-63.4-25.9"/>
	<path class="st18" d="M697.2,724.4c12.5-3.6,21.8-11.8,31.9-19.7c10.7-8.5,22.2-16.1,34.2-22.5"/>
</g>
</svg>
