<?xml version="1.0" encoding="utf-8"?>
<!-- Generator: Adobe Illustrator 25.2.0, SVG Export Plug-In . SVG Version: 6.00 Build 0)  -->
<svg version="1.1" id="Layer_1" xmlns="http://www.w3.org/2000/svg" xmlns:xlink="http://www.w3.org/1999/xlink" x="0px" y="0px"
	 viewBox="0 0 1080 1080" style="enable-background:new 0 0 1080 1080;" xml:space="preserve">
<style type="text/css">
	.st0{fill:#B5B5B5;}
	.st1{fill:url(#SVGID_1_);}
	.st2{fill:#E6E6E6;}
	.st3{fill:#37474F;}
	.st4{fill:#455A64;}
	.st5{fill:#7E57C2;}
	.st6{opacity:0.6;enable-background:new    ;}
	.st7{opacity:0.5;enable-background:new    ;}
	.st8{opacity:0.4;enable-background:new    ;}
	.st9{opacity:0.15;enable-background:new    ;}
	.st10{fill:#263238;}
	.st11{fill:#E0E0E0;}
	.st12{fill:#F5F5F5;}
	.st13{fill:#EBEBEB;}
	.st14{fill:#FFFFFF;}
	.st15{opacity:0.5;fill:#FFFFFF;enable-background:new    ;}
	.st16{opacity:0.5;}
	.st17{opacity:0.9;fill:#263238;enable-background:new    ;}
	.st18{opacity:0.6;fill:#FFFFFF;enable-background:new    ;}
	.st19{opacity:0.6;}
	.st20{opacity:0.8;fill:#FFFFFF;enable-background:new    ;}
	.st21{opacity:0.8;}
	.st22{opacity:0.9;}
	.st23{opacity:0.6;fill:#7E57C2;enable-background:new    ;}
	.st24{opacity:0.7;}
	.st25{opacity:0.3;}
	.st26{opacity:0.25;}
	.st27{opacity:0.1;enable-background:new    ;}
	.st28{fill:#FFA8A7;}
	.st29{fill:#FAFAFA;}
	.st30{opacity:0.4;}
	.st31{fill:#F28F8F;}
	.st32{opacity:0.75;fill:#FFFFFF;enable-background:new    ;}
	.st33{opacity:0.1;fill:#7E57C2;enable-background:new    ;}
	.st34{opacity:0.3;enable-background:new    ;}
	.st35{opacity:0.2;enable-background:new    ;}
	.st36{fill:#F0F0F0;}
	.st37{fill:url(#SVGID_2_);}
</style>
<g>
	<circle class="st0" cx="40.9" cy="110.4" r="4.3"/>
	<circle class="st0" cx="71.7" cy="110.4" r="4.3"/>
	<circle class="st0" cx="102.6" cy="110.4" r="4.3"/>
	<circle class="st0" cx="133.5" cy="110.4" r="4.3"/>
	<circle class="st0" cx="164.3" cy="110.4" r="4.3"/>
	<circle class="st0" cx="195.2" cy="110.4" r="4.3"/>
	<circle class="st0" cx="226.1" cy="110.4" r="4.3"/>
	<circle class="st0" cx="256.9" cy="110.4" r="4.3"/>
	<circle class="st0" cx="287.8" cy="110.4" r="4.3"/>
	<circle class="st0" cx="318.7" cy="110.4" r="4.3"/>
	<circle class="st0" cx="349.5" cy="110.4" r="4.3"/>
	<circle class="st0" cx="380.4" cy="110.4" r="4.3"/>
	<circle class="st0" cx="40.9" cy="139" r="4.3"/>
	<circle class="st0" cx="71.7" cy="139" r="4.3"/>
	<circle class="st0" cx="102.6" cy="139" r="4.3"/>
	<circle class="st0" cx="133.5" cy="139" r="4.3"/>
	<circle class="st0" cx="164.3" cy="139" r="4.3"/>
	<circle class="st0" cx="195.2" cy="139" r="4.3"/>
	<circle class="st0" cx="226.1" cy="139" r="4.3"/>
	<circle class="st0" cx="256.9" cy="139" r="4.3"/>
	<circle class="st0" cx="287.8" cy="139" r="4.3"/>
	<circle class="st0" cx="318.7" cy="139" r="4.3"/>
	<circle class="st0" cx="349.5" cy="139" r="4.3"/>
	<circle class="st0" cx="380.4" cy="139" r="4.3"/>
	<circle class="st0" cx="40.9" cy="167.6" r="4.3"/>
	<circle class="st0" cx="71.7" cy="167.6" r="4.3"/>
	<circle class="st0" cx="102.6" cy="167.6" r="4.3"/>
	<circle class="st0" cx="133.5" cy="167.6" r="4.3"/>
	<circle class="st0" cx="164.3" cy="167.6" r="4.3"/>
	<circle class="st0" cx="195.2" cy="167.6" r="4.3"/>
	<circle class="st0" cx="226.1" cy="167.6" r="4.3"/>
	<circle class="st0" cx="256.9" cy="167.6" r="4.3"/>
	<circle class="st0" cx="287.8" cy="167.6" r="4.3"/>
	<circle class="st0" cx="318.7" cy="167.6" r="4.3"/>
	<circle class="st0" cx="349.5" cy="167.6" r="4.3"/>
	<circle class="st0" cx="380.4" cy="167.6" r="4.3"/>
	<circle class="st0" cx="40.9" cy="196.3" r="4.3"/>
	<circle class="st0" cx="71.7" cy="196.3" r="4.3"/>
	<circle class="st0" cx="102.6" cy="196.3" r="4.3"/>
	<circle class="st0" cx="133.5" cy="196.3" r="4.3"/>
	<circle class="st0" cx="164.3" cy="196.3" r="4.3"/>
	<circle class="st0" cx="195.2" cy="196.3" r="4.3"/>
	<circle class="st0" cx="226.1" cy="196.3" r="4.3"/>
	<circle class="st0" cx="256.9" cy="196.3" r="4.3"/>
	<circle class="st0" cx="287.8" cy="196.3" r="4.3"/>
	<circle class="st0" cx="318.7" cy="196.3" r="4.3"/>
	<circle class="st0" cx="349.5" cy="196.3" r="4.3"/>
	<circle class="st0" cx="380.4" cy="196.3" r="4.3"/>
	<circle class="st0" cx="40.9" cy="224.9" r="4.3"/>
	<circle class="st0" cx="71.7" cy="224.9" r="4.3"/>
	<circle class="st0" cx="102.6" cy="224.9" r="4.3"/>
	<circle class="st0" cx="133.5" cy="224.9" r="4.3"/>
	<circle class="st0" cx="164.3" cy="224.9" r="4.3"/>
	<circle class="st0" cx="195.2" cy="224.9" r="4.3"/>
	<circle class="st0" cx="226.1" cy="224.9" r="4.3"/>
	<circle class="st0" cx="256.9" cy="224.9" r="4.3"/>
	<circle class="st0" cx="287.8" cy="224.9" r="4.3"/>
	<circle class="st0" cx="318.7" cy="224.9" r="4.3"/>
	<circle class="st0" cx="349.5" cy="224.9" r="4.3"/>
	<circle class="st0" cx="380.4" cy="224.9" r="4.3"/>
	<circle class="st0" cx="40.9" cy="253.6" r="4.3"/>
	<circle class="st0" cx="71.7" cy="253.6" r="4.3"/>
	<circle class="st0" cx="102.6" cy="253.6" r="4.3"/>
	<circle class="st0" cx="133.5" cy="253.6" r="4.3"/>
	<circle class="st0" cx="164.3" cy="253.6" r="4.3"/>
	<circle class="st0" cx="195.2" cy="253.6" r="4.3"/>
	<circle class="st0" cx="226.1" cy="253.6" r="4.3"/>
	<circle class="st0" cx="256.9" cy="253.6" r="4.3"/>
	<circle class="st0" cx="287.8" cy="253.6" r="4.3"/>
	<circle class="st0" cx="318.7" cy="253.6" r="4.3"/>
	<circle class="st0" cx="349.5" cy="253.6" r="4.3"/>
	<circle class="st0" cx="380.4" cy="253.6" r="4.3"/>
	<circle class="st0" cx="40.9" cy="282.2" r="4.3"/>
	<circle class="st0" cx="71.7" cy="282.2" r="4.3"/>
	<circle class="st0" cx="102.6" cy="282.2" r="4.3"/>
	<circle class="st0" cx="133.5" cy="282.2" r="4.3"/>
	<circle class="st0" cx="164.3" cy="282.2" r="4.3"/>
	<circle class="st0" cx="195.2" cy="282.2" r="4.3"/>
	<circle class="st0" cx="226.1" cy="282.2" r="4.3"/>
	<circle class="st0" cx="256.9" cy="282.2" r="4.3"/>
	<circle class="st0" cx="287.8" cy="282.2" r="4.3"/>
	<circle class="st0" cx="318.7" cy="282.2" r="4.3"/>
	<circle class="st0" cx="349.5" cy="282.2" r="4.3"/>
	<circle class="st0" cx="380.4" cy="282.2" r="4.3"/>
	<circle class="st0" cx="40.9" cy="310.9" r="4.3"/>
	<circle class="st0" cx="71.7" cy="310.9" r="4.3"/>
	<circle class="st0" cx="102.6" cy="310.9" r="4.3"/>
	<circle class="st0" cx="133.5" cy="310.9" r="4.3"/>
	<circle class="st0" cx="164.3" cy="310.9" r="4.3"/>
	<circle class="st0" cx="195.2" cy="310.9" r="4.3"/>
	<circle class="st0" cx="226.1" cy="310.9" r="4.3"/>
	<circle class="st0" cx="256.9" cy="310.9" r="4.3"/>
	<circle class="st0" cx="287.8" cy="310.9" r="4.3"/>
	<circle class="st0" cx="318.7" cy="310.9" r="4.3"/>
	<circle class="st0" cx="349.5" cy="310.9" r="4.3"/>
	<circle class="st0" cx="380.4" cy="310.9" r="4.3"/>
	<circle class="st0" cx="40.9" cy="339.5" r="4.3"/>
	<circle class="st0" cx="71.7" cy="339.5" r="4.3"/>
	<circle class="st0" cx="102.6" cy="339.5" r="4.3"/>
	<circle class="st0" cx="133.5" cy="339.5" r="4.3"/>
	<circle class="st0" cx="164.3" cy="339.5" r="4.3"/>
	<circle class="st0" cx="195.2" cy="339.5" r="4.3"/>
	<circle class="st0" cx="226.1" cy="339.5" r="4.3"/>
	<circle class="st0" cx="256.9" cy="339.5" r="4.3"/>
	<circle class="st0" cx="287.8" cy="339.5" r="4.3"/>
	<circle class="st0" cx="318.7" cy="339.5" r="4.3"/>
	<circle class="st0" cx="349.5" cy="339.5" r="4.3"/>
	<circle class="st0" cx="380.4" cy="339.5" r="4.3"/>
	<circle class="st0" cx="40.9" cy="368.1" r="4.3"/>
	<circle class="st0" cx="71.7" cy="368.1" r="4.3"/>
	<circle class="st0" cx="102.6" cy="368.1" r="4.3"/>
	<circle class="st0" cx="133.5" cy="368.1" r="4.3"/>
	<circle class="st0" cx="164.3" cy="368.1" r="4.3"/>
	<circle class="st0" cx="195.2" cy="368.1" r="4.3"/>
	<circle class="st0" cx="226.1" cy="368.1" r="4.3"/>
	<circle class="st0" cx="256.9" cy="368.1" r="4.3"/>
	<circle class="st0" cx="287.8" cy="368.1" r="4.3"/>
	<circle class="st0" cx="318.7" cy="368.1" r="4.3"/>
	<circle class="st0" cx="349.5" cy="368.1" r="4.3"/>
	<circle class="st0" cx="380.4" cy="368.1" r="4.3"/>
	<circle class="st0" cx="40.9" cy="396.8" r="4.3"/>
	<circle class="st0" cx="71.7" cy="396.8" r="4.3"/>
	<circle class="st0" cx="102.6" cy="396.8" r="4.3"/>
	<circle class="st0" cx="133.5" cy="396.8" r="4.3"/>
	<circle class="st0" cx="164.3" cy="396.8" r="4.3"/>
	<circle class="st0" cx="195.2" cy="396.8" r="4.3"/>
	<circle class="st0" cx="226.1" cy="396.8" r="4.3"/>
	<circle class="st0" cx="256.9" cy="396.8" r="4.3"/>
	<circle class="st0" cx="287.8" cy="396.8" r="4.3"/>
	<circle class="st0" cx="318.7" cy="396.8" r="4.3"/>
	<circle class="st0" cx="349.5" cy="396.8" r="4.3"/>
	<circle class="st0" cx="380.4" cy="396.8" r="4.3"/>
</g>
<linearGradient id="SVGID_1_" gradientUnits="userSpaceOnUse" x1="301.068" y1="163.8177" x2="924.5961" y2="787.3458">
	<stop  offset="0" style="stop-color:#FF569A"/>
	<stop  offset="1" style="stop-color:#FF1470"/>
</linearGradient>
<circle class="st1" cx="612.8" cy="475.6" r="440.9"/>
<ellipse id="freepik--shadow--inject-3_7_" class="st2" cx="813.4" cy="730.4" rx="54.9" ry="31.7"/>
<g id="freepik--Desk--inject-3_1_">
	<g id="freepik--desk--inject-3_1_">
		<g id="freepik--Table--inject-3_1_">
			<path class="st3" d="M732.6,550.7v164.1c-0.1,1.2-0.7,2.2-1.7,2.9l-3.5,2c-1,0.5-2.3,0.5-3.3,0l-3.5-2c-1-0.6-1.6-1.7-1.7-2.9
				V550.7c0-1,0.7-1.5,1.7-0.9l3.5,2c1,0.5,2.3,0.5,3.3,0l3.5-2C731.8,549.2,732.6,549.6,732.6,550.7z"/>
			<path class="st4" d="M724.1,719.6l-3.5-2c-1-0.6-1.6-1.7-1.7-2.9V550.7c0-1,0.7-1.5,1.7-0.9l3.5,2c1,0.6,1.6,1.7,1.7,2.8v164.1
				C725.7,719.7,725,720.2,724.1,719.6z"/>
			<path class="st3" d="M882.7,464V628c-0.1,1.2-0.7,2.2-1.7,2.9l-3.5,2.1c-1,0.5-2.3,0.5-3.3,0l-3.5-2c-1-0.6-1.6-1.7-1.7-2.9V464
				c0-1,0.8-1.5,1.7-1l3.5,2c1,0.5,2.3,0.5,3.3,0l3.5-2C881.9,462.5,882.7,462.9,882.7,464z"/>
			<path class="st4" d="M874.2,633l-3.5-2c-1-0.6-1.6-1.7-1.7-2.9V464c0-1,0.8-1.5,1.7-1l3.5,2c1,0.6,1.6,1.7,1.7,2.9V632
				C875.9,633,875.1,633.4,874.2,633z"/>
			<path class="st3" d="M530.4,434v164.1c-0.1,1.2-0.7,2.2-1.7,2.9l-3.5,2c-1,0.5-2.3,0.5-3.3,0l-3.5-2c-1-0.6-1.6-1.7-1.7-2.9V434
				c0-1,0.7-1.5,1.7-0.9l3.6,2c1,0.5,2.3,0.5,3.3,0l3.5-2C529.7,432.5,530.4,433,530.4,434z"/>
			<path class="st4" d="M522,603l-3.5-2c-1-0.6-1.6-1.7-1.7-2.9V433.9c0-1,0.7-1.5,1.7-0.9l3.5,2.1c1,0.6,1.6,1.7,1.7,2.9V602
				C523.6,603.1,522.8,603.5,522,603z"/>
			<path class="st5" d="M915.3,475.6v-1.2c-0.1-2.1-1.2-4.1-3-5.2L647.7,316.5c-1.9-1-4.1-1-6,0l-162.8,94c-1.8,1.2-2.9,3.1-3,5.2
				v1.3c0.1,2.1,1.2,4.1,3,5.2L743.5,575c1.9,0.9,4.1,0.9,6,0l162.8-94.1C914.1,479.7,915.2,477.7,915.3,475.6z"/>
			<path class="st6" d="M915.3,475.6v-1.2c-0.1-2.1-1.2-4.1-3-5.2L647.7,316.5c-1.9-1-4.1-1-6,0l-162.8,94c-1.8,1.2-2.9,3.1-3,5.2
				v1.3c0.1,2.1,1.2,4.1,3,5.2L743.5,575c1.9,0.9,4.1,0.9,6,0l162.8-94.1C914.1,479.7,915.2,477.7,915.3,475.6z"/>
			<path class="st5" d="M746.5,567.5v8.2c1,0,2-0.2,3-0.7l162.9-94c1.8-1.2,2.9-3.1,3-5.2v-1.2c-0.1-1.9-1-3.6-2.5-4.8
				c1.1,0.9,0.9,2.2-0.6,3.1l-162.8,94C748.5,567.2,747.5,567.5,746.5,567.5z"/>
			<path class="st7" d="M746.5,567.5v8.2c1,0,2-0.2,3-0.7l162.9-94c1.8-1.2,2.9-3.1,3-5.2v-1.2c-0.1-1.9-1-3.6-2.5-4.8
				c1.1,0.9,0.9,2.2-0.6,3.1l-162.8,94C748.5,567.2,747.5,567.5,746.5,567.5z"/>
			<path class="st5" d="M912.4,472.7l-162.9,94.1c-1.9,1-4.1,1-6,0L478.7,414.1c-1-0.3-1.5-1.4-1.2-2.3c0.2-0.5,0.6-1,1.2-1.2
				l162.8-94.1c1.9-1,4.1-1,6,0l264.7,152.7c1,0.3,1.5,1.4,1.2,2.3C913.3,472.1,912.9,472.5,912.4,472.7z"/>
			<path class="st8" d="M912.4,472.7l-162.9,94.1c-1.9,1-4.1,1-6,0L478.7,414.1c-1-0.3-1.5-1.4-1.2-2.3c0.2-0.5,0.6-1,1.2-1.2
				l162.8-94.1c1.9-1,4.1-1,6,0l264.7,152.7c1,0.3,1.5,1.4,1.2,2.3C913.3,472.1,912.9,472.5,912.4,472.7z"/>
		</g>
		<g id="freepik--Keyboard--inject-3_1_">
			<path id="freepik--shadow--inject-3_6_" class="st9" d="M726.5,470.6L687.9,493c-1.4,0.7-3,0.7-4.3,0l-114-65.7
				c-0.7-0.2-1.1-1-0.8-1.7c0.1-0.4,0.4-0.7,0.8-0.8l38.6-22.3c1.4-0.7,3-0.7,4.3,0l114,65.7c0.7,0.3,1,1.1,0.7,1.7
				C727.1,470.2,726.8,470.5,726.5,470.6z"/>
			<g id="freepik--keyboard--inject-3_1_">
				<path class="st10" d="M571.9,420.8c0-0.5,0.4-1,0.9-1.2l36.2-20.9c1.4-0.7,3-0.7,4.3,0l110.6,64c0.5,0.2,0.8,0.7,0.9,1.3v3.8
					c0,0.5-0.4,1-0.9,1.2l-36.2,20.9c-1.4,0.7-3,0.7-4.3,0l-110.6-63.9c-0.5-0.2-0.9-0.7-0.9-1.2V420.8z"/>
				<path class="st3" d="M687.8,485.9l36.2-20.8c0.7-0.2,1.1-1,0.8-1.7c-0.1-0.4-0.4-0.7-0.8-0.8l-110.6-64c-1.4-0.7-3-0.7-4.3,0
					l-36.2,20.9c-0.7,0.2-1.1,1-0.8,1.7c0.1,0.4,0.4,0.7,0.8,0.8l110.6,63.9C684.8,486.6,686.4,486.6,687.8,485.9z"/>
				<path class="st10" d="M685.7,486.4v3.9c0.7,0,1.4-0.2,2-0.5l36.2-20.9c0.5-0.2,0.9-0.7,0.9-1.3v-3.8c0,0.6-0.4,1-0.9,1.3
					l-36.2,20.8C687.1,486.2,686.4,486.4,685.7,486.4z"/>
				<path class="st5" d="M578.6,421.1L578.6,421.1l3.6-2.1l4.9,2.8l-3.6,2.1L578.6,421.1L578.6,421.1z M584.2,417.8L584.2,417.8
					l3.6-2.1l3.8,2.2l-3.6,2L584.2,417.8L584.2,417.8z M585.4,425L585.4,425l3.6-2.1l3.8,2.2l-3.6,2.1L585.4,425L585.4,425z
					 M589.9,414.7L589.9,414.7l3.6-2.1l6.2,3.6l-3.6,2.1L589.9,414.7L589.9,414.7z M590,421.2L590,421.2l3.6-2.1l3,1.8L593,423
					L590,421.2L590,421.2z M591.2,428.4L591.2,428.4l3.6-2.1l3.8,2.2l-3.6,2.1L591.2,428.4L591.2,428.4z M595,424.1L595,424.1
					l3.6-2.1l3,1.8l-3.6,2.1L595,424.1L595,424.1z M595.5,411.4L595.5,411.4l3.6-2.1l4.9,2.8l-3.6,2L595.5,411.4L595.5,411.4z
					 M596.9,431.7L596.9,431.7l3.6-2.1l27.6,15.9l-3.6,2.1L596.9,431.7L596.9,431.7z M598,419.3L598,419.3l3.6-2.1l3,1.8l-3.6,2.1
					l-3-1.7L598,419.3z M599.9,427L599.9,427l3.6-2.1l3,1.8l-3.6,2.1L599.9,427L599.9,427z M601.1,408.2L601.1,408.2l3.6-2.1l3,1.8
					l-3.6,2.1L601.1,408.2L601.1,408.2z M602.3,415.4L602.3,415.4l3.6-2.1l3,1.7l-3.6,2L602.3,415.4L602.3,415.4z M602.9,422.2
					L602.9,422.2l3.6-2.1l3,1.8l-3.6,2.1L602.9,422.2L602.9,422.2z M604.9,429.8L604.9,429.8l3.6-2.1l3,1.8l-3.6,2.1L604.9,429.8
					L604.9,429.8z M606.1,411L606.1,411l3.6-2.1l3,1.8l-3.6,2.1L606.1,411L606.1,411z M607.2,418.2L607.2,418.2l3.6-2.1l3,1.7
					l-3.6,2.1L607.2,418.2L607.2,418.2z M607.9,425.1L607.9,425.1l3.6-2.1l3,1.8l-3.6,2.1L607.9,425.1L607.9,425.1z M607.9,404.2
					L607.9,404.2l3.6-2.1l3.8,2.2l-3.6,2.1L607.9,404.2L607.9,404.2z M609.9,432.7L609.9,432.7l3.6-2.1l3,1.8l-3.6,2.1L609.9,432.7
					L609.9,432.7z M611,413.9L611,413.9l3.6-2.1l3,1.8l-3.6,2L611,413.9L611,413.9z M612.2,421.1L612.2,421.1l3.6-2.1l3,1.7
					l-3.6,2.1L612.2,421.1L612.2,421.1z M612.9,428L612.9,428l3.6-2.1l3,1.8l-3.6,2.1L612.9,428L612.9,428z M614.8,435.6
					L614.8,435.6l3.6-2.1l3,1.8l-3.6,2.1L614.8,435.6L614.8,435.6z M615.8,408.8L615.8,408.8l3.6-2.1l3,1.7l-3.6,2.1L615.8,408.8
					L615.8,408.8z M616,416.8L616,416.8l3.6-2.1l3,1.8l-3.6,2.1L616,416.8L616,416.8z M617.2,424L617.2,424l3.6-2.1l3,1.7l-3.6,2.1
					L617.2,424L617.2,424z M617.8,430.8L617.8,430.8l3.6-2.1l3,1.8l-3.6,2.1L617.8,430.8L617.8,430.8z M619.8,438.4L619.8,438.4
					l3.6-2.2l3,1.8l-3.6,2.1L619.8,438.4L619.8,438.4z M620.8,411.7L620.8,411.7l3.6-2.1l3,1.7l-3.6,2.1L620.8,411.7L620.8,411.7z
					 M621,419.7L621,419.7l3.6-2.1l3,1.8l-3.6,2L621,419.7L621,419.7z M622.1,426.8L622.1,426.8l3.6-2.1l3,1.7l-3.6,2.1L622.1,426.8
					L622.1,426.8z M622.8,433.7L622.8,433.7l3.6-2.1l3,1.8l-3.6,2.1L622.8,433.7L622.8,433.7z M624.8,441.3L624.8,441.3l3.6-2.1
					l3,1.8l-3.6,2.1L624.8,441.3L624.8,441.3z M625.8,414.6L625.8,414.6l3.6-2.1l3,1.7l-3.6,2.1L625.8,414.6L625.8,414.6z
					 M625.9,422.5L625.9,422.5l3.6-2.1l3,1.8l-3.6,2.1L625.9,422.5L625.9,422.5z M626.5,448.8L626.5,448.8l3.6-2.1l3.8,2.2l-3.6,2.1
					L626.5,448.8L626.5,448.8z M627.1,429.7L627.1,429.7l3.6-2.1l3,1.7l-3.6,2.1L627.1,429.7L627.1,429.7z M627.8,436.6L627.8,436.6
					l3.6-2.1l3,1.6l-3.6,2.1L627.8,436.6L627.8,436.6z M629.7,444.2L629.7,444.2l3.6-2.1l3,1.8l-3.6,2.1L629.7,444.2L629.7,444.2z
					 M630.7,417.4L630.7,417.4l3.6-2.1l3,1.7l-3.6,2.1L630.7,417.4L630.7,417.4z M630.9,425.4L630.9,425.4l3.6-2.1l3,1.8l-3.6,2.1
					L630.9,425.4L630.9,425.4z M632.1,432.6L632.1,432.6l3.6-2.1l3,1.7l-3.6,2.1L632.1,432.6L632.1,432.6z M632.2,452.1L632.2,452.1
					l3.6-2.1l3.8,2.2l-3.6,2.1L632.2,452.1L632.2,452.1z M632.7,439.4L632.7,439.4l3.6-2.1l3,1.8l-3.4,2l-3-1.7L632.7,439.4z
					 M634.7,447.1L634.7,447.1l3.6-2.1l3,1.8l-3.6,2.1L634.7,447.1L634.7,447.1z M635.9,428.3L635.9,428.3l3.6-2.1l3,1.8l-3.6,2.1
					L635.9,428.3L635.9,428.3z M637,435.4L637,435.4l3.6-2.1l3,1.7l-3.6,2.1L637,435.4L637,435.4z M637.7,442.3L637.7,442.3l3.6-2.1
					l3,1.8l-3.6,2.1l-3-1.9L637.7,442.3z M637.9,421.6L637.9,421.6l3.6-2.1l3,1.8l-3.6,2.1l-3-1.9L637.9,421.6z M638,455.5
					L638,455.5l3.6-2.1l3.8,2.2l-3.6,2L638,455.5L638,455.5z M639.7,450L639.7,450l3.6-2.1l3,1.8l-3.6,2.1L639.7,450L639.7,450z
					 M640.8,431.2L640.8,431.2l3.6-2.1l3,1.8l-3.6,2.1L640.8,431.2L640.8,431.2z M642,438.3L642,438.3l3.6-2.1l3,1.7l-3.6,2.1
					L642,438.3L642,438.3z M642.7,445.2L642.7,445.2l3.6-2.1l3,1.8l-3.6,2.1L642.7,445.2L642.7,445.2z M642.8,424.5L642.8,424.5
					l3.6-2.1l3,1.8l-3.6,2.1L642.8,424.5L642.8,424.5z M643.7,458.8L643.7,458.8l3.6-2.1l4.9,2.8l-3.6,2.1L643.7,458.8L643.7,458.8z
					 M644.7,452.9L644.7,452.9l3.6-2.1l9.6,5.5l-3.6,2.1l-9.5-5.8L644.7,452.9z M645.8,434.1L645.8,434.1l3.6-2.1l3,1.8l-3.6,2.1
					L645.8,434.1L645.8,434.1z M647,441.3L647,441.3l3.6-2.1l3,1.5l-3.6,2.1l-3-1.7L647,441.3z M647.7,448.2L647.7,448.2l3.6-2.1
					l3,1.8l-3.7,1.9l-3-1.7L647.7,448.2z M647.8,427.5L647.8,427.5l3.6-2.1l3,1.8l-3.6,2.1L647.8,427.5L647.8,427.5z M650.8,437
					L650.8,437l3.6-2.1l3,1.8l-3.6,2.1L650.8,437L650.8,437z M651.6,463.5L651.6,463.5l3.6-2.1l3,1.7l-3.6,2.1L651.6,463.5
					L651.6,463.5z M651.9,444.2L651.9,444.2l3.6-2.1l3,1.7l-3.4,1.8l-3-1.7L651.9,444.2z M652.6,451.1L652.6,451.1l3.6-2.1l2.8,1.6
					c0.3,0.1,0.6,0.2,0.9,0.2c0.3,0,0.6-0.1,0.9-0.2l4.7-2.7l3.5,2.1l-9.2,5.4L652.6,451.1L652.6,451.1z M652.8,430.4L652.8,430.4
					l3.6-2.1l3,1.8l-3.6,1.8l-3-1.8L652.8,430.4z M655.7,440L655.7,440l3.6-2.1l3,1.8l-3.6,2.1L655.7,440L655.7,440z M656.5,466.4
					L656.5,466.4l3.6-2.1l3,1.7l-3.6,2.1L656.5,466.4L656.5,466.4z M656.9,447.2L656.9,447.2l3.6-2.1l3,1.7l-3.6,2.1L656.9,447.2
					L656.9,447.2z M659.9,434.5L659.9,434.5l3.6-2.1l3,1.7l-3.6,2.1L659.9,434.5L659.9,434.5z M660.7,442.9L660.7,442.9l3.6-2.1
					l3,1.8l-3.6,2.1L660.7,442.9L660.7,442.9z M661.5,469.3L661.5,469.3l3.6-2.1l3,1.7l-3.6,2.1L661.5,469.3L661.5,469.3z
					 M662.1,463.2L662.1,463.2l3.6-2.1l3,1.8l-3.6,2.1l-3-2.1L662.1,463.2z M664.8,437.4L664.8,437.4l3.6-2.1l3,1.7l-3.6,2.1
					L664.8,437.4L664.8,437.4z M665.6,445.7L665.6,445.7l3.6-2.1l5.4,3.1l-3.6,2.1L665.6,445.7L665.6,445.7z M667.5,472.7
					L667.5,472.7l3.6-2.1l8,4.6l-3.6,2.1L667.5,472.7L667.5,472.7z M668.4,453.8L668.4,453.8l3.6-2.1l3,1.8l-3.6,2.1L668.4,453.8
					L668.4,453.8z M669.8,440.3L669.8,440.3l3.6-2.1l3,1.7l-3.6,1.8l-3-1.7L669.8,440.3z M673.1,469.5L673.1,469.5l3.6-2.1l3,1.8
					l-3.6,2.1L673.1,469.5L673.1,469.5z M673.4,456.7L673.4,456.7l3.6-2.1l3,1.8l-3.6,2.1L673.4,456.7L673.4,456.7z M674,450.6
					L674,450.6l3.6-2.1l3,1.7l-3.6,2.1L674,450.6L674,450.6z M674.8,443.2L674.8,443.2l3.6-2.1l3,1.7l-3.6,2.1L674.8,443.2
					L674.8,443.2z M677.4,478.5L677.4,478.5l3.6-2.1l3,1.7l-3.6,2.1L677.4,478.5L677.4,478.5z M678.1,472.4L678.1,472.4l3.6-2.1
					l3,1.8l-3.6,2.1L678.1,472.4L678.1,472.4z M678.3,459.6L678.3,459.6l3.6-2.1l3,1.8l-3.6,2.1L678.3,459.6L678.3,459.6z
					 M678.7,466.3L678.7,466.3l3.6-2.1l3,1.8l-3.6,2.1L678.7,466.3L678.7,466.3z M679,453.5L679,453.5l3.6-2.1l3,1.7l-3.6,2.1
					L679,453.5L679,453.5z M680.8,446.7L680.8,446.7l3.6-2.1l3,1.7l-3.5,1.8l-3-1.7L680.8,446.7z M682.4,481.4L682.4,481.4l9.2-5.3
					l3,1.8l-9.2,5.4L682.4,481.4L682.4,481.4z M683.1,475.3L683.1,475.3l3.6-2.1l3,1.8l-3.6,1.7l-3-1.8L683.1,475.3z M683.7,469.2
					L683.7,469.2l3.6-2.1l3,1.8l-3.6,2.1l-3-2.2L683.7,469.2z M683.9,456.3L683.9,456.3l3.6-2.1l3,1.7l-3.6,2.1L683.9,456.3
					L683.9,456.3z M684.3,463.1L684.3,463.1l3.6-2.1l3,1.7l-3.6,2.1L684.3,463.1L684.3,463.1z M685.8,449.5L685.8,449.5l3.6-2.1
					l3,1.7l-3.6,2.1L685.8,449.5L685.8,449.5z M688.7,472L688.7,472l3.6-2.1l3,1.8l-3.6,2.1l-3-2.1L688.7,472z M689.3,465.9
					L689.3,465.9l3.6-2.1l3,1.7l-3.6,1.7l-3-1.7L689.3,465.9z M690,459.8L690,459.8l3.6-2.1l3,1.7l-3.6,2.1L690,459.8L690,459.8z
					 M690.8,452.4L690.8,452.4l3.6-2.1l3,1.7l-3.6,2.1L690.8,452.4L690.8,452.4z M693.7,474.9L693.7,474.9l9.2-5.3l3,1.7l-9.2,5.4
					L693.7,474.9L693.7,474.9z M694.3,468.8L694.3,468.8l3.6-2.1l3,1.7l-3.6,2.1L694.3,468.8L694.3,468.8z M695,462.7L695,462.7
					l3.6-2.1l3,1.7l-3.6,1.7l-3-1.7L695,462.7z M698.3,455.1L698.3,455.1l1.5-0.9l3,1.8l-1.6,1L698.3,455.1L698.3,455.1z
					 M699.9,465.6L699.9,465.6l3.6-2.1l3,1.7l-3.6,2.1L699.9,465.6L699.9,465.6z M703.2,457.9L703.2,457.9l1.5-0.9l3,1.8l-1.6,1
					L703.2,457.9L703.2,457.9z M704.9,468.4L704.9,468.4l3.6-2.1l3,1.7l-3.6,2.1L704.9,468.4L704.9,468.4z M708.2,460.8L708.2,460.8
					l1.5-0.9l3,1.8l-1.6,1L708.2,460.8L708.2,460.8z M713.1,463.7L713.1,463.7l1.5-0.9l3,1.8l-1.6,1L713.1,463.7L713.1,463.7z"/>
			</g>
		</g>
		<g id="freepik--Device--inject-3_1_">
			<polygon id="freepik--shadow--inject-3_5_" class="st9" points="815.6,475 849.6,455.4 679.9,357.4 645.9,377 			"/>
			<g id="freepik--Monitor--inject-3_1_">
				<path class="st2" d="M719.5,443.1l-24.2-14c-2.5-1.5-3.8-3.3-3.8-5.2v-3.4l22.8-12.9c1.4-0.9,2.3-2.5,2.4-4.2v-29.9l42.3,24.5
					v29.9c-0.1,1.7-1,3.3-2.4,4.2l-19,11.1C731.9,446,725.2,446,719.5,443.1z"/>
				<path class="st11" d="M748.9,433.1v3.4l7.7-4.4c1.4-0.9,2.3-2.5,2.4-4.2V398l-8.1-4.7c-0.2,2.1-0.4,4.2-0.5,6.2l5.6,3.3v23.3
					c-0.1,1.7-1,3.3-2.4,4.2L748.9,433.1z"/>
				<path class="st12" d="M756.1,426.1c-0.1,1.7-1,3.3-2.4,4.2l-16.1,9.4c-5.7,2.9-12.4,2.9-18.1,0l-24.2-14c-5-2.9-5-7.6,0-10.4
					l16.1-9.4c1.4-0.9,2.3-2.5,2.4-4.2v-23.3l42.3,24.5L756.1,426.1z"/>
				<path class="st13" d="M706.5,408.7L706.5,408.7l4.9-2.8c1.4-0.9,2.3-2.5,2.4-4.2v-23.3l42.3,24.5v23.3c-0.1,1.7-1,3.3-2.4,4.2
					l-4.8,2.8L706.5,408.7z"/>
				<path class="st13" d="M691.5,420.5v3.4c0,1.9,1.3,3.8,3.7,5.2l24.2,14c2.7,1.4,5.6,2.2,8.6,2.1v-3.4c-3,0-6-0.7-8.6-2.1
					l-24.2-14C692.8,424.3,691.5,422.4,691.5,420.5z"/>
				<path class="st4" d="M824.1,458.4c-1.9,0.9-4,0.9-5.8-0.1l-163.7-94.4c-1.8-1.2-2.9-3.1-3-5.2V215.3c-0.1-3.1,2.3-5.8,5.4-5.9
					c1.1,0,2.3,0.3,3.2,0.9L824,304.8c1.8,1.2,2.9,3.1,3,5.2v143.3C826.9,455.3,825.8,457.2,824.1,458.4z"/>
				<path class="st3" d="M818.3,458.2l-163.7-94.4c-1.8-1.2-2.9-3.1-3-5.2V215.2c0-1.9,1.3-2.7,3-1.7L818.3,308
					c1.8,1.2,2.9,3.1,3,5.2v143.3C821.3,458.5,819.9,459.2,818.3,458.2z"/>
				<path class="st11" d="M818.7,458.8c2.8,1.4,6.2,0.4,7.6-2.4c0.5-0.9,0.7-1.8,0.6-2.8v-16.1l-5.6,3.2v16.1
					C821.3,458.6,820.2,459.4,818.7,458.8z"/>
				<path class="st14" d="M821.3,440.7v16.1c0,1.9-1.4,2.7-3,1.7l-163.7-94.5c-1.8-1.2-2.9-3.1-3-5.2v-16.1L821.3,440.7z"/>
				<path class="st5" d="M815.6,428.5V315.1c-0.1-1.3-0.7-2.4-1.8-3.1L659,222.6c-1-0.6-1.8-0.1-1.8,1v113.4
					c0.1,1.3,0.7,2.4,1.8,3.1l154.8,89.4C814.8,430.1,815.6,429.7,815.6,428.5z"/>
				<path class="st15" d="M815.6,428.5V315.1c-0.1-1.3-0.7-2.4-1.8-3.1L659,222.6c-1-0.6-1.8-0.1-1.8,1v113.4
					c0.1,1.3,0.7,2.4,1.8,3.1l154.8,89.4C814.8,430.1,815.6,429.7,815.6,428.5z"/>
				<path class="st4" d="M736.4,397.9c1.7,1.1,2.7,2.9,2.8,4.9c0,1.8-1.3,2.5-2.8,1.6c-1.7-1.1-2.7-2.9-2.8-4.9
					C733.6,397.8,734.9,397,736.4,397.9z"/>
				<path class="st10" d="M820.4,310.3c0.5,0.9,0.8,1.9,0.9,3v127.5l5.6-3.3V310c0-1-0.3-2.1-0.9-3L820.4,310.3z"/>
			</g>
		</g>
		<g id="freepik--Window--inject-3_1_">
			<g id="freepik--window--inject-3_3_">
				<path class="st4" d="M678.4,185.7c0-0.1,0-0.2,0-0.3l0,0c0-0.1,0-0.2,0-0.3c0-0.1,0.1-0.3,0.2-0.4c0-0.1,0.1-0.1,0.1-0.1
					l0.1-0.1c0.1-0.1,0.1-0.1,0.2-0.2l0,0c0.1-0.1,0.2-0.1,0.3-0.1c0.6-0.2,1.4-0.1,1.9,0.3l191,110.2c1.7,1.1,2.8,3,2.9,5v138.2
					l0,0v0.6c0,0.7-0.4,1.4-1,1.7l-0.1,0.1l-0.1,0.1h-0.3c-0.1,0-0.2,0-0.4,0c-0.3,0-0.7-0.1-0.9-0.3H872l0,0l-2.5-1.6L681.2,330
					c-1.7-1.1-2.8-3-2.9-5V186C678.3,185.9,678.4,185.8,678.4,185.7z"/>
				<path class="st5" d="M679.3,184.1c0.6-0.2,1.4-0.1,1.9,0.3l191,110.2c1.7,1.1,2.8,3,2.9,5v9.5l3.7-2.2v-9.4
					c-0.1-2-1.2-3.9-2.9-5l-191-110.3c-0.6-0.4-1.4-0.5-2.1-0.2C682.3,182.4,679.9,183.8,679.3,184.1z"/>
				<path class="st5" d="M678.3,186c0-1.8,1.3-2.6,2.9-1.6l191,110.2c1.7,1.1,2.8,3,2.9,5v9.5L678.3,195.5V186z"/>
				<g class="st16">
					<path class="st14" d="M681.2,184.4l191,110.2c0.8,0.5,1.5,1.3,2,2.1l3.7-2.1c-0.5-0.9-1.2-1.6-2-2.1l-191-110.2
						c-0.6-0.4-1.4-0.5-2.1-0.2c-0.5,0.3-3,1.7-3.5,2C679.9,183.9,680.7,184,681.2,184.4z"/>
				</g>
				<path class="st9" d="M878.8,306.9v-9.4c0-1-0.3-2.1-0.9-3l-3.7,2.1c0.5,0.9,0.8,1.9,0.9,2.9v9.6L878.8,306.9z"/>
				<path class="st4" d="M868.6,296.6c1.1,0.8,1.7,2.1,1.6,3.5c0,1.4-0.7,2.1-1.6,1.6c-1.1-0.8-1.7-2.1-1.6-3.5
					C867,296.8,867.7,296.1,868.6,296.6z"/>
				<path class="st4" d="M862.8,293.2c1.1,0.8,1.7,2.1,1.6,3.4c0,1.4-0.7,2.1-1.6,1.6c-1.1-0.8-1.7-2.1-1.6-3.4
					C861.1,293.4,861.9,292.7,862.8,293.2z"/>
				<path class="st4" d="M856.9,289.9c1.1,0.8,1.7,2.1,1.6,3.5c0,1.4-0.7,2.1-1.6,1.6c-1.1-0.8-1.7-2.1-1.6-3.5
					C855.3,290,856,289.3,856.9,289.9z"/>
				<path class="st17" d="M874.1,440.3l0.1-0.1l3-1.8c0.8-0.5,1.4-1.3,1.5-2.2c0-0.1,0-0.3,0-0.4V306.9l-3.7,2.2v129.5
					c0,0.7-0.3,1.3-0.9,1.6h-0.1l0,0L874.1,440.3z"/>
			</g>
			<g id="freepik--Code--inject-3_1_">
				<path class="st5" d="M736.9,244.7l40.3,23.2c0.6,0.4,1,1,1,1.7c0,0.6-0.5,0.9-1,0.5l-40.3-23.2c-0.6-0.4-1-1-1-1.7
					C735.8,244.6,736.3,244.4,736.9,244.7z"/>
				<path class="st2" d="M752.2,289.1l15.2,8.8c0.6,0.4,1,1,1,1.7c0,0.6-0.5,0.8-1,0.5l-15.2-8.8c-0.6-0.4-1-1-1-1.7
					C751.2,289,751.7,288.8,752.2,289.1z"/>
				<path class="st2" d="M752.2,298l15.2,8.8c0.6,0.4,1,1,1,1.7c0,0.6-0.5,0.8-1,0.5l-15.2-8.8c-0.6-0.4-1-1-1-1.7
					C751.2,297.9,751.7,297.7,752.2,298z"/>
				<path class="st5" d="M781.1,270.2l80.6,46.4c0.6,0.4,1,1,1,1.7c0,0.6-0.5,0.8-1,0.5l-80.6-46.4c-0.6-0.4-1-1-1-1.7
					C780.1,270.1,780.5,269.9,781.1,270.2z"/>
				<path class="st5" d="M752.6,351.4l24.5,14.2c0.6,0.4,1,1,1,1.7c0,0.6-0.5,0.8-1,0.5l-24.5-14.2c-0.6-0.4-1-1-1-1.7
					C751.6,351.3,752,351.1,752.6,351.4z"/>
				<path class="st5" d="M781.1,367.9l80.6,46.5c0.6,0.4,1,1,1,1.7c0,0.6-0.5,0.8-1,0.5l-80.6-46.5c-0.6-0.4-1-1-1-1.7
					C780.1,367.8,780.5,367.6,781.1,367.9z"/>
				<path class="st5" d="M736.9,253.6l20.2,11.7c0.6,0.4,1,1,1,1.7c0,0.6-0.5,0.9-1,0.5l-20.2-11.6c-0.6-0.4-1-1-1-1.7
					C735.8,253.5,736.3,253.3,736.9,253.6z"/>
				<path class="st18" d="M736.9,253.6l20.2,11.7c0.6,0.4,1,1,1,1.7c0,0.6-0.5,0.9-1,0.5l-20.2-11.6c-0.6-0.4-1-1-1-1.7
					C735.8,253.5,736.3,253.3,736.9,253.6z"/>
				<path class="st5" d="M736.9,262.5l9.5,5.5c0.6,0.4,1,1,1,1.7c0,0.6-0.5,0.8-1,0.5l-9.5-5.4c-0.6-0.4-1-1-1-1.7
					C735.8,262.4,736.3,262.1,736.9,262.5z"/>
				<path class="st18" d="M736.9,262.5l9.5,5.5c0.6,0.4,1,1,1,1.7c0,0.6-0.5,0.8-1,0.5l-9.5-5.4c-0.6-0.4-1-1-1-1.7
					C735.8,262.4,736.3,262.1,736.9,262.5z"/>
				<path class="st5" d="M736.9,280.2l9.5,5.5c0.6,0.4,1,1,1,1.7c0,0.6-0.5,0.8-1,0.5l-9.5-5.5c-0.6-0.4-1-1-1-1.7
					C735.8,280.1,736.3,279.9,736.9,280.2z"/>
				<path class="st18" d="M736.9,280.2l9.5,5.5c0.6,0.4,1,1,1,1.7c0,0.6-0.5,0.8-1,0.5l-9.5-5.5c-0.6-0.4-1-1-1-1.7
					C735.8,280.1,736.3,279.9,736.9,280.2z"/>
				<path class="st5" d="M736.9,289.1l9.5,5.5c0.6,0.4,1,1,1,1.7c0,0.6-0.5,0.9-1,0.5l-9.5-5.5c-0.6-0.4-1-1-1-1.7
					C735.8,289,736.3,288.8,736.9,289.1z"/>
				<path class="st18" d="M736.9,289.1l9.5,5.5c0.6,0.4,1,1,1,1.7c0,0.6-0.5,0.9-1,0.5l-9.5-5.5c-0.6-0.4-1-1-1-1.7
					C735.8,289,736.3,288.8,736.9,289.1z"/>
				<path class="st5" d="M761.1,267.5l12.2,7.1c0.6,0.4,1,1,1,1.7c0,0.6-0.5,0.8-1,0.5l-12.2-7c-0.6-0.4-1-1-1-1.7
					C760.1,267.4,760.5,267.2,761.1,267.5z"/>
				<path class="st18" d="M761.1,267.5l12.2,7.1c0.6,0.4,1,1,1,1.7c0,0.6-0.5,0.8-1,0.5l-12.2-7c-0.6-0.4-1-1-1-1.7
					C760.1,267.4,760.5,267.2,761.1,267.5z"/>
				<path class="st14" d="M779.9,331.8l81.8,47.1c0.6,0.4,1,1,1,1.7c0,0.6-0.5,0.8-1,0.5L779.9,334c-0.6-0.4-1-1-1-1.7
					C778.9,331.7,779.4,331.4,779.9,331.8z"/>
				<path class="st14" d="M849.6,362.9l12.2,7c0.6,0.4,1,1,1,1.7c0,0.6-0.5,0.8-1,0.5l-12.2-7c-0.6-0.4-1-1-1-1.7
					C848.5,362.8,849,362.6,849.6,362.9z"/>
				<path class="st14" d="M763.8,313.5l81.8,47.1c0.6,0.4,1,1,1,1.7c0,0.6-0.5,0.8-1,0.5l-81.8-47.1c-0.6-0.4-1-1-1-1.7
					C762.8,313.4,763.2,313.2,763.8,313.5z"/>
				<path class="st5" d="M752.2,271.3l20.3,11.7c0.6,0.4,1,1,1,1.7c0,0.6-0.5,0.8-1,0.5l-20.3-11.6c-0.6-0.4-1-1-1-1.7
					C751.2,271.2,751.7,271,752.2,271.3z"/>
				<path class="st18" d="M752.2,271.3l20.3,11.7c0.6,0.4,1,1,1,1.7c0,0.6-0.5,0.8-1,0.5l-20.3-11.6c-0.6-0.4-1-1-1-1.7
					C751.2,271.2,751.7,271,752.2,271.3z"/>
				<path class="st5" d="M776.5,285.3l84.6,48.9c0.6,0.4,1,1,1,1.7c0,0.6-0.5,0.8-1,0.5l-84.6-49c-0.6-0.4-1-1-1-1.7
					C775.5,285.2,775.9,285,776.5,285.3z"/>
				<path class="st18" d="M776.5,285.3l84.6,48.9c0.6,0.4,1,1,1,1.7c0,0.6-0.5,0.8-1,0.5l-84.6-49c-0.6-0.4-1-1-1-1.7
					C775.5,285.2,775.9,285,776.5,285.3z"/>
				<path class="st2" d="M752.2,324.8L861.7,388c0.6,0.4,1,1,1,1.7c0,0.6-0.5,0.9-1,0.5l-109.4-63.1c-0.6-0.4-1-1-1.1-1.7
					C751.2,324.7,751.7,324.5,752.2,324.8z"/>
				<path class="st5" d="M736.9,315.9l9.5,5.5c0.6,0.4,1,1,1,1.7c0,0.6-0.5,0.8-1,0.5l-9.5-5.5c-0.6-0.4-1-1-1-1.7
					C735.8,315.9,736.3,315.6,736.9,315.9z"/>
				<path class="st18" d="M736.9,315.9l9.5,5.5c0.6,0.4,1,1,1,1.7c0,0.6-0.5,0.8-1,0.5l-9.5-5.5c-0.6-0.4-1-1-1-1.7
					C735.8,315.9,736.3,315.6,736.9,315.9z"/>
				<path class="st2" d="M752.2,333.7l109.4,63.1c0.6,0.4,1,1,1,1.7c0,0.6-0.5,0.8-1,0.5l-109.4-63.1c-0.6-0.4-1-1-1.1-1.7
					C751.2,333.6,751.7,333.4,752.2,333.7z"/>
				<path class="st5" d="M736.9,324.8l9.5,5.5c0.6,0.4,1,1,1,1.7c0,0.6-0.5,0.8-1,0.5l-9.5-5.5c-0.6-0.4-1-1-1-1.7
					C735.8,324.7,736.3,324.5,736.9,324.8z"/>
				<path class="st18" d="M736.9,324.8l9.5,5.5c0.6,0.4,1,1,1,1.7c0,0.6-0.5,0.8-1,0.5l-9.5-5.5c-0.6-0.4-1-1-1-1.7
					C735.8,324.7,736.3,324.5,736.9,324.8z"/>
				<path class="st2" d="M752.2,342.6l109.4,63.1c0.6,0.4,1,1,1,1.7c0,0.6-0.5,0.8-1,0.5l-109.4-63.1c-0.6-0.4-1-1-1.1-1.7
					C751.2,342.5,751.7,342.3,752.2,342.6z"/>
				<path class="st5" d="M736.9,333.7l9.5,5.5c0.6,0.4,1,1,1,1.7c0,0.6-0.5,0.9-1,0.5l-9.5-5.5c-0.6-0.4-1-1-1-1.7
					C735.8,333.6,736.3,333.4,736.9,333.7z"/>
				<path class="st18" d="M736.9,333.7l9.5,5.5c0.6,0.4,1,1,1,1.7c0,0.6-0.5,0.9-1,0.5l-9.5-5.5c-0.6-0.4-1-1-1-1.7
					C735.8,333.6,736.3,333.4,736.9,333.7z"/>
				<g class="st19">
					<path class="st14" d="M722.1,235.8l5.6,3.2c0.6,0.4,1,1,1,1.8v2.1c0,0.6-0.4,0.9-1,0.6l-5.6-3.2c-0.6-0.4-1-1-1-1.7v-2.1
						C721,235.7,721.5,235.5,722.1,235.8z"/>
					<path class="st14" d="M722.1,244.7l5.6,3.2c0.6,0.4,1,1,1,1.7v2.1c0,0.7-0.4,0.9-1,0.6l-5.6-3.2c-0.6-0.4-1-1-1-1.8v-2.1
						C721,244.7,721.5,244.4,722.1,244.7z"/>
					<path class="st14" d="M722.1,253.7l5.6,3.2c0.6,0.4,1,1,1,1.8v2.1c0,0.6-0.4,0.9-1,0.6l-5.6-3.2c-0.6-0.4-1-1-1-1.7v-2.1
						C721,253.6,721.5,253.4,722.1,253.7z"/>
					<path class="st14" d="M722.1,262.7l5.6,3.2c0.6,0.4,1,1,1,1.7v2.1c0,0.7-0.4,0.9-1,0.6l-5.6-3.2c-0.6-0.4-1-1-1-1.8v-2.1
						C721,262.6,721.5,262.4,722.1,262.7z"/>
					<path class="st14" d="M722.1,271.6l5.6,3.2c0.6,0.4,1,1,1,1.8v2c0,0.7-0.4,0.9-1,0.6l-5.6-3.2c-0.6-0.4-1-1-1-1.7v-2.1
						C721,271.6,721.5,271.3,722.1,271.6z"/>
					<path class="st14" d="M722.1,280.6l5.6,3.2c0.6,0.4,1,1,1,1.7v2.1c0,0.7-0.4,0.9-1,0.6l-5.6-3.2c-0.6-0.4-1-1-1-1.8v-2.1
						C721,280.6,721.5,280.3,722.1,280.6z"/>
					<path class="st14" d="M722.1,289.6l5.6,3.2c0.6,0.4,1,1,1,1.8v2c0,0.7-0.4,0.9-1,0.6l-5.6-3.2c-0.6-0.4-1-1-1-1.7v-2.1
						C721,289.5,721.5,289.3,722.1,289.6z"/>
					<path class="st14" d="M722.1,298.6l5.6,3.2c0.6,0.4,1,1,1,1.7v2.1c0,0.7-0.4,0.9-1,0.6l-5.6-3.2c-0.6-0.4-1-1-1-1.8v-2.1
						C721,298.5,721.5,298.2,722.1,298.6z"/>
					<path class="st14" d="M722.1,307.5l5.6,3.2c0.6,0.4,1,1,1,1.8v2c0,0.7-0.4,0.9-1,0.6l-5.6-3.2c-0.6-0.4-1-1-1-1.8v-2
						C721,307.5,721.5,307.2,722.1,307.5z"/>
					<path class="st14" d="M722.1,316.5l5.6,3.2c0.6,0.4,1,1,1,1.7v2.1c0,0.7-0.4,0.9-1,0.6l-5.6-3.2c-0.6-0.4-1-1-1-1.8v-2.1
						C721,316.5,721.5,316.2,722.1,316.5z"/>
					<path class="st14" d="M722.1,325.5l5.6,3.2c0.6,0.4,1,1,1,1.8v2c0,0.7-0.4,0.9-1,0.6l-5.6-3.3c-0.6-0.4-1-1-1-1.8v-2
						C721,325.4,721.5,325.1,722.1,325.5z"/>
					<path class="st14" d="M722.1,334.4l5.6,3.2c0.6,0.4,1,1,1,1.8v2.1c0,0.7-0.4,0.9-1,0.6l-5.6-3.2c-0.6-0.4-1-1-1-1.8V335
						C721,334.4,721.5,334.1,722.1,334.4z"/>
				</g>
				<path class="st3" d="M685.1,206.6l30.2,17.4c1.2,0.8,2,2.1,2,3.5v34.8c0,1.3-0.9,1.8-2,1.2l-30.2-17.4c-1.2-0.8-2-2.1-2-3.5
					v-34.8C683,206.5,683.9,206,685.1,206.6z"/>
				<path class="st5" d="M687.8,241.2l2.8,1.6c0.6,0.4,1,1,1,1.7c0,0.6-0.5,0.8-1,0.5l-2.8-1.6c-0.6-0.4-1-1-1-1.7
					C686.8,241.1,687.3,240.8,687.8,241.2z"/>
				<path class="st18" d="M687.8,241.2l2.8,1.6c0.6,0.4,1,1,1,1.7c0,0.6-0.5,0.8-1,0.5l-2.8-1.6c-0.6-0.4-1-1-1-1.7
					C686.8,241.1,687.3,240.8,687.8,241.2z"/>
				<path class="st5" d="M687.8,212.6l2.8,1.6c0.6,0.4,1,1,1,1.7c0,0.6-0.5,0.8-1,0.5l-2.8-1.6c-0.6-0.4-1-1-1-1.7
					C686.8,212.6,687.3,212.3,687.8,212.6z"/>
				<path class="st18" d="M687.8,212.6l2.8,1.6c0.6,0.4,1,1,1,1.7c0,0.6-0.5,0.8-1,0.5l-2.8-1.6c-0.6-0.4-1-1-1-1.7
					C686.8,212.6,687.3,212.3,687.8,212.6z"/>
				<path class="st5" d="M691.7,220.6l2.8,1.6c0.6,0.4,1,1,1,1.7c0,0.6-0.5,0.9-1,0.5l-2.8-1.6c-0.6-0.4-1-1-1-1.7
					C690.7,220.5,691.2,220.3,691.7,220.6z"/>
				<path class="st18" d="M691.7,220.6l2.8,1.6c0.6,0.4,1,1,1,1.7c0,0.6-0.5,0.9-1,0.5l-2.8-1.6c-0.6-0.4-1-1-1-1.7
					C690.7,220.5,691.2,220.3,691.7,220.6z"/>
				<path class="st5" d="M691.7,226.3l2.8,1.6c0.6,0.4,1,1,1,1.7c0,0.6-0.5,0.8-1,0.5l-2.8-1.6c-0.6-0.4-1-1-1-1.7
					C690.7,226.2,691.2,226,691.7,226.3z"/>
				<path class="st18" d="M691.7,226.3l2.8,1.6c0.6,0.4,1,1,1,1.7c0,0.6-0.5,0.8-1,0.5l-2.8-1.6c-0.6-0.4-1-1-1-1.7
					C690.7,226.2,691.2,226,691.7,226.3z"/>
				<path class="st5" d="M687.8,229.8l2.8,1.6c0.6,0.4,1,1,1,1.7c0,0.6-0.5,0.8-1,0.5l-2.8-1.6c-0.6-0.4-1-1-1-1.7
					C686.8,229.7,687.3,229.4,687.8,229.8z"/>
				<path class="st18" d="M687.8,229.8l2.8,1.6c0.6,0.4,1,1,1,1.7c0,0.6-0.5,0.8-1,0.5l-2.8-1.6c-0.6-0.4-1-1-1-1.7
					C686.8,229.7,687.3,229.4,687.8,229.8z"/>
				<path class="st5" d="M691.7,237.7l2.8,1.6c0.6,0.4,1,1,1,1.7c0,0.6-0.5,0.8-1,0.5l-2.8-1.6c-0.6-0.4-1-1-1-1.7
					C690.7,237.6,691.2,237.4,691.7,237.7z"/>
				<path class="st18" d="M691.7,237.7l2.8,1.6c0.6,0.4,1,1,1,1.7c0,0.6-0.5,0.8-1,0.5l-2.8-1.6c-0.6-0.4-1-1-1-1.7
					C690.7,237.6,691.2,237.4,691.7,237.7z"/>
				<path class="st5" d="M695.5,217l16.9,9.8c0.6,0.4,1,1,1,1.7c0,0.6-0.5,0.8-1,0.5l-16.9-9.8c-0.6-0.4-1-1-1-1.7
					C694.4,216.9,694.9,216.7,695.5,217z"/>
				<path class="st20" d="M695.5,217l16.9,9.8c0.6,0.4,1,1,1,1.7c0,0.6-0.5,0.8-1,0.5l-16.9-9.8c-0.6-0.4-1-1-1-1.7
					C694.4,216.9,694.9,216.7,695.5,217z"/>
				<path class="st5" d="M695.5,245.5l16.9,9.8c0.6,0.4,1,1,1,1.7c0,0.6-0.5,0.8-1,0.5l-16.9-9.8c-0.6-0.4-1-1-1-1.7
					C694.4,245.5,694.9,245.2,695.5,245.5z"/>
				<path class="st20" d="M695.5,245.5l16.9,9.8c0.6,0.4,1,1,1,1.7c0,0.6-0.5,0.8-1,0.5l-16.9-9.8c-0.6-0.4-1-1-1-1.7
					C694.4,245.5,694.9,245.2,695.5,245.5z"/>
				<path class="st5" d="M699.4,225l13,7.5c0.6,0.4,1,1,1,1.7c0,0.6-0.5,0.8-1,0.5l-13-7.6c-0.6-0.4-1-1-1-1.7
					C698.3,224.9,698.8,224.7,699.4,225z"/>
				<path class="st20" d="M699.4,225l13,7.5c0.6,0.4,1,1,1,1.7c0,0.6-0.5,0.8-1,0.5l-13-7.6c-0.6-0.4-1-1-1-1.7
					C698.3,224.9,698.8,224.7,699.4,225z"/>
				<path class="st5" d="M699.4,230.7l13,7.6c0.6,0.4,1,1,1,1.7c0,0.6-0.5,0.8-1,0.5l-13-7.6c-0.6-0.4-1-1-1-1.7
					C698.3,230.6,698.8,230.4,699.4,230.7z"/>
				<path class="st20" d="M699.4,230.7l13,7.6c0.6,0.4,1,1,1,1.7c0,0.6-0.5,0.8-1,0.5l-13-7.6c-0.6-0.4-1-1-1-1.7
					C698.3,230.6,698.8,230.4,699.4,230.7z"/>
				<path class="st5" d="M695.5,234.2l16.9,9.8c0.6,0.4,1,1,1,1.7c0,0.6-0.5,0.8-1,0.5l-16.9-9.8c-0.6-0.4-1-1-1-1.7
					C694.4,234.1,694.9,233.8,695.5,234.2z"/>
				<path class="st20" d="M695.5,234.2l16.9,9.8c0.6,0.4,1,1,1,1.7c0,0.6-0.5,0.8-1,0.5l-16.9-9.8c-0.6-0.4-1-1-1-1.7
					C694.4,234.1,694.9,233.8,695.5,234.2z"/>
				<path class="st5" d="M699.4,242.1l13,7.6c0.6,0.4,1,1,1,1.7c0,0.6-0.5,0.8-1,0.5l-13-7.6c-0.6-0.4-1-1-1-1.7
					C698.3,242,698.8,241.8,699.4,242.1z"/>
				<path class="st20" d="M699.4,242.1l13,7.6c0.6,0.4,1,1,1,1.7c0,0.6-0.5,0.8-1,0.5l-13-7.6c-0.6-0.4-1-1-1-1.7
					C698.3,242,698.8,241.8,699.4,242.1z"/>
				<path class="st3" d="M685.1,252.7l30.2,17.4c1.2,0.8,1.9,2.1,2,3.5v68.8c0,1.3-0.9,1.8-2,1.2l-30.2-17.4c-1.2-0.8-2-2.1-2-3.5
					v-68.8C683,252.6,683.9,252.1,685.1,252.7z"/>
				<path class="st5" d="M687.8,258.7l2.8,1.6c0.6,0.4,1,1,1,1.7c0,0.6-0.5,0.8-1,0.5l-2.8-1.6c-0.6-0.4-1-1-1-1.7
					C686.8,258.6,687.3,258.4,687.8,258.7z"/>
				<path class="st18" d="M687.8,258.7l2.8,1.6c0.6,0.4,1,1,1,1.7c0,0.6-0.5,0.8-1,0.5l-2.8-1.6c-0.6-0.4-1-1-1-1.7
					C686.8,258.6,687.3,258.4,687.8,258.7z"/>
				<path class="st5" d="M691.7,266.7l2.8,1.6c0.6,0.4,1,1,1,1.7c0,0.6-0.5,0.8-1,0.5l-2.8-1.6c-0.6-0.4-1-1-1-1.7
					C690.7,266.6,691.2,266.3,691.7,266.7z"/>
				<path class="st18" d="M691.7,266.7l2.8,1.6c0.6,0.4,1,1,1,1.7c0,0.6-0.5,0.8-1,0.5l-2.8-1.6c-0.6-0.4-1-1-1-1.7
					C690.7,266.6,691.2,266.3,691.7,266.7z"/>
				<path class="st5" d="M691.7,272.4l2.8,1.6c0.6,0.4,1,1,1,1.7c0,0.6-0.5,0.8-1,0.5l-2.8-1.6c-0.6-0.4-1-1-1-1.7
					C690.7,272.3,691.2,272,691.7,272.4z"/>
				<path class="st18" d="M691.7,272.4l2.8,1.6c0.6,0.4,1,1,1,1.7c0,0.6-0.5,0.8-1,0.5l-2.8-1.6c-0.6-0.4-1-1-1-1.7
					C690.7,272.3,691.2,272,691.7,272.4z"/>
				<path class="st5" d="M687.8,275.8l2.8,1.6c0.6,0.4,1,1,1,1.7c0,0.6-0.5,0.8-1,0.5l-2.8-1.6c-0.6-0.4-1-1-1-1.7
					C686.8,275.7,687.3,275.5,687.8,275.8z"/>
				<path class="st18" d="M687.8,275.8l2.8,1.6c0.6,0.4,1,1,1,1.7c0,0.6-0.5,0.8-1,0.5l-2.8-1.6c-0.6-0.4-1-1-1-1.7
					C686.8,275.7,687.3,275.5,687.8,275.8z"/>
				<path class="st5" d="M695.5,263.1l16.9,9.8c0.6,0.4,1,1,1,1.7c0,0.6-0.5,0.8-1,0.5l-16.9-9.8c-0.6-0.4-1-1-1-1.7
					C694.4,263,694.9,262.8,695.5,263.1z"/>
				<path class="st20" d="M695.5,263.1l16.9,9.8c0.6,0.4,1,1,1,1.7c0,0.6-0.5,0.8-1,0.5l-16.9-9.8c-0.6-0.4-1-1-1-1.7
					C694.4,263,694.9,262.8,695.5,263.1z"/>
				<path class="st5" d="M699.4,271.1l13,7.6c0.6,0.4,1,1,1,1.7c0,0.6-0.5,0.8-1,0.5l-13-7.6c-0.6-0.4-1-1-1-1.7
					C698.3,270.9,698.8,270.7,699.4,271.1z"/>
				<path class="st20" d="M699.4,271.1l13,7.6c0.6,0.4,1,1,1,1.7c0,0.6-0.5,0.8-1,0.5l-13-7.6c-0.6-0.4-1-1-1-1.7
					C698.3,270.9,698.8,270.7,699.4,271.1z"/>
				<path class="st5" d="M699.4,276.8l13,7.5c0.6,0.4,1,1,1,1.7c0,0.6-0.5,0.9-1,0.5l-13-7.6c-0.6-0.4-1-1-1-1.7
					C698.3,276.7,698.8,276.4,699.4,276.8z"/>
				<path class="st20" d="M699.4,276.8l13,7.5c0.6,0.4,1,1,1,1.7c0,0.6-0.5,0.9-1,0.5l-13-7.6c-0.6-0.4-1-1-1-1.7
					C698.3,276.7,698.8,276.4,699.4,276.8z"/>
				<path class="st5" d="M695.5,280.2l16.9,9.8c0.6,0.4,1,1,1,1.7c0,0.6-0.5,0.8-1,0.5l-16.9-9.7c-0.6-0.4-1-1-1-1.7
					C694.4,280.1,694.9,279.9,695.5,280.2z"/>
				<path class="st20" d="M695.5,280.2l16.9,9.8c0.6,0.4,1,1,1,1.7c0,0.6-0.5,0.8-1,0.5l-16.9-9.7c-0.6-0.4-1-1-1-1.7
					C694.4,280.1,694.9,279.9,695.5,280.2z"/>
				<path class="st5" d="M691.7,283.8l2.8,1.6c0.6,0.4,1,1,1,1.7c0,0.6-0.5,0.8-1,0.5l-2.8-1.6c-0.6-0.4-1-1-1-1.7
					C690.7,283.7,691.2,283.5,691.7,283.8z"/>
				<path class="st18" d="M691.7,283.8l2.8,1.6c0.6,0.4,1,1,1,1.7c0,0.6-0.5,0.8-1,0.5l-2.8-1.6c-0.6-0.4-1-1-1-1.7
					C690.7,283.7,691.2,283.5,691.7,283.8z"/>
				<path class="st5" d="M691.7,289.5l2.8,1.6c0.6,0.4,1,1,1,1.7c0,0.6-0.5,0.8-1,0.5l-2.8-1.6c-0.6-0.4-1-1-1-1.7
					C690.7,289.4,691.2,289.2,691.7,289.5z"/>
				<path class="st18" d="M691.7,289.5l2.8,1.6c0.6,0.4,1,1,1,1.7c0,0.6-0.5,0.8-1,0.5l-2.8-1.6c-0.6-0.4-1-1-1-1.7
					C690.7,289.4,691.2,289.2,691.7,289.5z"/>
				<path class="st5" d="M699.4,288.2l13,7.6c0.6,0.4,1,1,1,1.7c0,0.6-0.5,0.9-1,0.5l-13-7.5c-0.6-0.4-1-1-1-1.7
					C698.3,288.1,698.8,287.9,699.4,288.2z"/>
				<path class="st20" d="M699.4,288.2l13,7.6c0.6,0.4,1,1,1,1.7c0,0.6-0.5,0.9-1,0.5l-13-7.5c-0.6-0.4-1-1-1-1.7
					C698.3,288.1,698.8,287.9,699.4,288.2z"/>
				<path class="st5" d="M699.4,293.9l13,7.6c0.6,0.4,1,1,1,1.7c0,0.6-0.5,0.8-1,0.5l-13-7.6c-0.6-0.4-1-1-1-1.7
					C698.3,293.8,698.8,293.6,699.4,293.9z"/>
				<path class="st20" d="M699.4,293.9l13,7.6c0.6,0.4,1,1,1,1.7c0,0.6-0.5,0.8-1,0.5l-13-7.6c-0.6-0.4-1-1-1-1.7
					C698.3,293.8,698.8,293.6,699.4,293.9z"/>
				<path class="st5" d="M687.8,304.4l2.8,1.6c0.6,0.4,1,1,1,1.7c0,0.6-0.5,0.8-1,0.5l-2.8-1.6c-0.6-0.4-1-1-1-1.7
					C686.8,304.3,687.3,304.1,687.8,304.4z"/>
				<path class="st18" d="M687.8,304.4l2.8,1.6c0.6,0.4,1,1,1,1.7c0,0.6-0.5,0.8-1,0.5l-2.8-1.6c-0.6-0.4-1-1-1-1.7
					C686.8,304.3,687.3,304.1,687.8,304.4z"/>
				<path class="st5" d="M695.5,308.8l16.9,9.8c0.6,0.4,1,1,1,1.7c0,0.6-0.5,0.8-1,0.5l-16.9-9.8c-0.6-0.4-1-1-1-1.7
					C694.4,308.7,694.9,308.5,695.5,308.8z"/>
				<path class="st20" d="M695.5,308.8l16.9,9.8c0.6,0.4,1,1,1,1.7c0,0.6-0.5,0.8-1,0.5l-16.9-9.8c-0.6-0.4-1-1-1-1.7
					C694.4,308.7,694.9,308.5,695.5,308.8z"/>
				<path class="st5" d="M691.7,312.4l2.8,1.6c0.6,0.4,1,1,1,1.7c0,0.6-0.5,0.8-1,0.5l-2.8-1.6c-0.6-0.4-1-1-1-1.7
					C690.7,312.3,691.2,312.1,691.7,312.4z"/>
				<path class="st18" d="M691.7,312.4l2.8,1.6c0.6,0.4,1,1,1,1.7c0,0.6-0.5,0.8-1,0.5l-2.8-1.6c-0.6-0.4-1-1-1-1.7
					C690.7,312.3,691.2,312.1,691.7,312.4z"/>
				<path class="st5" d="M691.7,318.1l2.8,1.6c0.6,0.4,1,1,1,1.7c0,0.6-0.5,0.8-1,0.5l-2.8-1.6c-0.6-0.4-1-1-1-1.7
					C690.7,318,691.2,317.8,691.7,318.1z"/>
				<path class="st18" d="M691.7,318.1l2.8,1.6c0.6,0.4,1,1,1,1.7c0,0.6-0.5,0.8-1,0.5l-2.8-1.6c-0.6-0.4-1-1-1-1.7
					C690.7,318,691.2,317.8,691.7,318.1z"/>
				<path class="st5" d="M699.4,316.8l13,7.6c0.6,0.4,1,1,1,1.7c0,0.6-0.5,0.8-1,0.5l-13-7.6c-0.6-0.4-1-1-1-1.7
					C698.3,316.7,698.8,316.5,699.4,316.8z"/>
				<path class="st20" d="M699.4,316.8l13,7.6c0.6,0.4,1,1,1,1.7c0,0.6-0.5,0.8-1,0.5l-13-7.6c-0.6-0.4-1-1-1-1.7
					C698.3,316.7,698.8,316.5,699.4,316.8z"/>
				<path class="st5" d="M699.4,322.5l13,7.6c0.6,0.4,1,1,1,1.7c0,0.6-0.5,0.8-1,0.5l-13-7.6c-0.6-0.4-1-1-1-1.7
					C698.3,322.4,698.8,322.2,699.4,322.5z"/>
				<path class="st20" d="M699.4,322.5l13,7.6c0.6,0.4,1,1,1,1.7c0,0.6-0.5,0.8-1,0.5l-13-7.6c-0.6-0.4-1-1-1-1.7
					C698.3,322.4,698.8,322.2,699.4,322.5z"/>
				<path class="st5" d="M691.7,295.2l2.8,1.6c0.6,0.4,1,1,1,1.7c0,0.6-0.5,0.8-1,0.5l-2.8-1.6c-0.6-0.4-1-1-1-1.7
					C690.7,295.1,691.2,294.8,691.7,295.2z"/>
				<path class="st18" d="M691.7,295.2l2.8,1.6c0.6,0.4,1,1,1,1.7c0,0.6-0.5,0.8-1,0.5l-2.8-1.6c-0.6-0.4-1-1-1-1.7
					C690.7,295.1,691.2,294.8,691.7,295.2z"/>
				<path class="st5" d="M687.8,298.6l2.8,1.6c0.6,0.4,1,1,1,1.7c0,0.6-0.5,0.8-1,0.5l-2.8-1.6c-0.6-0.4-1-1-1-1.7
					C686.8,298.5,687.3,298.3,687.8,298.6z"/>
				<path class="st18" d="M687.8,298.6l2.8,1.6c0.6,0.4,1,1,1,1.7c0,0.6-0.5,0.8-1,0.5l-2.8-1.6c-0.6-0.4-1-1-1-1.7
					C686.8,298.5,687.3,298.3,687.8,298.6z"/>
				<path class="st5" d="M699.4,299.6l13,7.6c0.6,0.4,1,1,1,1.7c0,0.6-0.5,0.8-1,0.5l-13-7.6c-0.6-0.4-1-1-1-1.7
					C698.3,299.5,698.8,299.2,699.4,299.6z"/>
				<path class="st20" d="M699.4,299.6l13,7.6c0.6,0.4,1,1,1,1.7c0,0.6-0.5,0.8-1,0.5l-13-7.6c-0.6-0.4-1-1-1-1.7
					C698.3,299.5,698.8,299.2,699.4,299.6z"/>
				<path class="st5" d="M695.5,303l16.9,9.8c0.6,0.4,1,1,1,1.7c0,0.6-0.5,0.8-1,0.5l-16.9-9.8c-0.6-0.4-1-1-1-1.7
					C694.4,302.9,694.9,302.7,695.5,303z"/>
				<path class="st20" d="M695.5,303l16.9,9.8c0.6,0.4,1,1,1,1.7c0,0.6-0.5,0.8-1,0.5l-16.9-9.8c-0.6-0.4-1-1-1-1.7
					C694.4,302.9,694.9,302.7,695.5,303z"/>
				<path class="st5" d="M687.8,321.6l2.8,1.6c0.6,0.4,1,1,1,1.7c0,0.6-0.5,0.8-1,0.5l-2.8-1.6c-0.6-0.4-1-1-1-1.7
					C686.8,321.6,687.3,321.3,687.8,321.6z"/>
				<path class="st18" d="M687.8,321.6l2.8,1.6c0.6,0.4,1,1,1,1.7c0,0.6-0.5,0.8-1,0.5l-2.8-1.6c-0.6-0.4-1-1-1-1.7
					C686.8,321.6,687.3,321.3,687.8,321.6z"/>
				<path class="st5" d="M695.5,326l16.9,9.8c0.6,0.4,1,1,1,1.7c0,0.6-0.5,0.8-1,0.5l-16.9-9.7c-0.6-0.4-1-1-1-1.7
					C694.4,325.9,694.9,325.7,695.5,326z"/>
				<path class="st20" d="M695.5,326l16.9,9.8c0.6,0.4,1,1,1,1.7c0,0.6-0.5,0.8-1,0.5l-16.9-9.7c-0.6-0.4-1-1-1-1.7
					C694.4,325.9,694.9,325.7,695.5,326z"/>
			</g>
		</g>
		<g id="freepik--window--inject-3_2_">
			<g class="st21">
				<path class="st4" d="M852.9,349.5v112.9c0.1,1.7,1,3.2,2.4,4.1l64.9,37.4c0.2,0.1,0.5,0.2,0.8,0.2h0.3h0.2h0.1l0.1-0.1l0.1-0.1
					c0.2-0.2,0.3-0.4,0.4-0.6c0.2-0.4,0.3-0.8,0.3-1.2V389.7c-0.1-1.7-1-3.2-2.4-4.1l-64.9-37.4c-0.5-0.3-1.1-0.4-1.6-0.2l-0.2,0.1
					l0,0l-0.2,0.1c0,0,0,0.1,0,0.1c0,0-0.1,0.1-0.1,0.1c-0.1,0.1-0.1,0.2-0.1,0.3c0,0.1,0,0.1,0,0.2l0,0v0.2
					C852.9,349.3,852.9,349.4,852.9,349.5z"/>
			</g>
			<path class="st5" d="M853.7,347.9c0.5-0.2,1.1-0.1,1.6,0.2l64.9,37.4c1.4,0.9,2.3,2.4,2.4,4.1v7.7l3.7-2.2v-7.6
				c-0.1-1.6-1-3.2-2.4-4.1L859,346.1c-0.5-0.4-1.2-0.4-1.7-0.1C856.9,346.1,854.2,347.7,853.7,347.9z"/>
			<path class="st5" d="M852.9,349.4c0-1.5,1-2.1,2.3-1.3l64.9,37.4c1.4,0.9,2.3,2.4,2.4,4.1v7.7L853,357.1L852.9,349.4z"/>
			<g class="st16">
				<path class="st14" d="M855.2,348.1l64.9,37.4c0.7,0.4,1.3,1,1.7,1.7l3.7-2.1c-0.4-0.7-1-1.3-1.6-1.7L859,346.1
					c-0.5-0.4-1.2-0.4-1.7-0.1c-0.4,0.3-3.1,1.8-3.6,2C854.2,347.7,854.8,347.8,855.2,348.1z"/>
			</g>
			<path class="st9" d="M926.2,395.1v-7.6c0-0.8-0.3-1.6-0.7-2.4l-3.7,2.1c0.4,0.7,0.7,1.5,0.7,2.3v7.7L926.2,395.1z"/>
			<path class="st4" d="M919.1,388.7c0.9,0.7,1.3,1.7,1.3,2.8c0,1.1-0.6,1.7-1.3,1.3c-0.9-0.7-1.3-1.7-1.3-2.8
				C917.7,388.8,918.3,388.2,919.1,388.7z"/>
			<path class="st4" d="M914.3,385.9c0.9,0.7,1.4,1.7,1.3,2.8c0,1.1-0.6,1.7-1.3,1.3c-0.8-0.7-1.3-1.7-1.3-2.8
				C913,386,913.6,385.5,914.3,385.9z"/>
			<path class="st4" d="M909.5,383.1c0.9,0.7,1.4,1.7,1.4,2.9c0,1.1-0.6,1.7-1.3,1.3c-0.9-0.7-1.4-1.7-1.3-2.8
				C908.2,383.3,908.8,382.7,909.5,383.1z"/>
			<g class="st22">
				<path class="st3" d="M921.6,503.9l0.3-0.2l0.7-0.4l0,0c0.1-0.1,0.3-0.2,0.4-0.2l0,0l0.6-0.4l1.3-0.7l0.3-0.2
					c0.2-0.1,0.3-0.2,0.4-0.3c0.1-0.1,0.2-0.3,0.3-0.5c0.2-0.4,0.3-0.8,0.3-1.2V395.1l-3.7,2.2v104.7c0,0.4-0.1,0.8-0.3,1.2
					c-0.1,0.2-0.2,0.4-0.4,0.6C921.7,503.8,921.7,503.8,921.6,503.9L921.6,503.9z"/>
			</g>
			<path class="st5" d="M858.3,370.1c0-0.1,0-0.2,0.1-0.3l1.7-1.5c0,0,0,0,0.1,0l0,0c0.1,0,0.1,0.1,0.1,0.2c0,0.1,0,0.2,0,0.2v1.2
				c0,0.1,0,0.2,0,0.3c0,0.1-0.1,0.1-0.1,0.2l-0.9,0.8l0.9,1.8c0,0.1,0.1,0.2,0.1,0.3c0,0.1,0,0.2,0,0.4v1.2c0,0.1,0,0.1,0,0.2
				c0,0-0.1,0-0.1,0l0,0l-0.1-0.1l-1.7-3.5c-0.1-0.1-0.1-0.3-0.1-0.4V370.1z"/>
			<path class="st5" d="M864.5,368.5c0-0.1,0.1-0.1,0.1-0.2c0,0,0.1,0,0.3,0l0.6,0.4c0.1,0,0.1,0.1,0.1,0.2c0,0.1,0,0.2,0,0.2
				c0,0,0,0.1,0,0.1l-3,9c0,0.1-0.1,0.1-0.1,0.2c0,0-0.1,0-0.3,0l-0.6-0.4c-0.1,0-0.1-0.1-0.1-0.2c0-0.1,0-0.2,0-0.2
				c0,0,0-0.1,0-0.1L864.5,368.5z"/>
			<path class="st5" d="M868.9,377.1c0,0.1,0,0.2-0.1,0.3l-1.7,1.5c0,0-0.1,0-0.1,0l0,0c-0.1,0-0.1-0.1-0.1-0.2c0-0.1,0-0.2,0-0.2
				v-1.2c0-0.1,0-0.2,0-0.3c0-0.1,0.1-0.1,0.1-0.2l0.9-0.8l-0.9-1.8c0-0.1-0.1-0.2-0.1-0.3c0-0.1,0-0.2,0-0.4v-1.2
				c0-0.1,0-0.1,0-0.2c0,0,0.1,0,0.1,0l0,0c0,0,0.1,0.1,0.1,0.1l1.7,3.5c0.1,0.1,0.1,0.3,0.1,0.4V377.1z"/>
			<path class="st5" d="M873.6,381.7c0.1,0,0.1,0.1,0.2,0.2c0,0.1,0,0.2,0,0.3v1.3c0,0.1,0,0.1,0,0.2c0,0-0.1,0-0.2,0l-0.8-0.5
				c-0.1,0-0.1-0.1-0.2-0.2c0-0.1,0-0.2,0-0.3v-1.2c0-0.1,0-0.2,0-0.2c0,0,0.1,0,0.2,0L873.6,381.7z"/>
			<path class="st5" d="M876.3,383.3c0.1,0,0.1,0.1,0.2,0.2c0,0.1,0,0.2,0,0.3v1.3c0,0.1,0,0.1,0,0.2c0,0-0.1,0-0.2,0l-0.8-0.5
				c-0.1-0.1-0.1-0.1-0.2-0.2c0-0.1-0.1-0.2-0.1-0.3V383c0-0.1,0-0.2,0.1-0.2c0,0,0.1,0,0.2,0L876.3,383.3z"/>
			<path class="st5" d="M878.9,384.8c0.1,0,0.1,0.1,0.2,0.2c0,0.1,0,0.2,0,0.3v1.3c0,0.1,0,0.1,0,0.2c0,0-0.1,0-0.2,0l-0.8-0.5
				c-0.1-0.1-0.1-0.1-0.2-0.2c0-0.1-0.1-0.2-0.1-0.3v-1.3c0-0.1,0-0.2,0.1-0.2c0,0,0.1,0,0.2,0L878.9,384.8z"/>
			<path class="st5" d="M859,380.3l39,22.5c0.5,0.3,0.8,0.8,0.8,1.4c0,0.5-0.4,0.7-0.8,0.4l-39-22.5c-0.5-0.3-0.8-0.8-0.8-1.4
				C858.2,380.3,858.5,380.1,859,380.3z"/>
			<path class="st2" d="M871.5,409.2l39,22.5c0.5,0.3,0.8,0.8,0.8,1.4c0,0.5-0.4,0.7-0.8,0.4l-39-22.5c-0.5-0.3-0.8-0.8-0.8-1.4
				C870.7,409.1,871,409,871.5,409.2z"/>
			<path class="st2" d="M871.5,423.7l18.7,10.8c0.5,0.3,0.8,0.8,0.8,1.4c0,0.5-0.4,0.7-0.8,0.4l-18.7-10.8c-0.5-0.3-0.8-0.8-0.8-1.4
				C870.7,423.6,871,423.4,871.5,423.7z"/>
			<path class="st5" d="M901.2,404.7l15.5,8.9c0.5,0.3,0.8,0.8,0.8,1.4c0,0.5-0.4,0.7-0.8,0.4l-15.5-8.9c-0.5-0.3-0.8-0.8-0.8-1.4
				C900.4,404.6,900.8,404.4,901.2,404.7z"/>
			<path class="st5" d="M859,459.8l39,22.5c0.5,0.3,0.8,0.8,0.8,1.4c0,0.5-0.4,0.7-0.8,0.4l-39-22.5c-0.5-0.3-0.8-0.8-0.8-1.4
				C858.2,459.7,858.5,459.5,859,459.8z"/>
			<path class="st5" d="M901.2,484.1l15.5,8.9c0.5,0.3,0.8,0.8,0.8,1.4c0,0.5-0.4,0.7-0.8,0.4l-15.5-8.9c-0.5-0.3-0.8-0.8-0.8-1.4
				C900.4,484.1,900.8,483.9,901.2,484.1z"/>
			<path class="st5" d="M901.2,462.5l15.5,8.9c0.5,0.3,0.8,0.8,0.8,1.4c0,0.5-0.4,0.7-0.8,0.4l-15.5-8.9c-0.5-0.3-0.8-0.8-0.8-1.4
				C900.4,462.4,900.8,462.2,901.2,462.5z"/>
			<path class="st5" d="M901.2,469.7l15.5,8.9c0.5,0.3,0.8,0.8,0.8,1.4c0,0.5-0.4,0.7-0.8,0.4l-15.5-8.9c-0.5-0.3-0.8-0.8-0.8-1.4
				C900.4,469.7,900.8,469.5,901.2,469.7z"/>
			<path class="st5" d="M888,454.8l8.7,5c0.5,0.3,0.8,0.8,0.8,1.4c0,0.5-0.4,0.7-0.8,0.4l-8.7-5c-0.5-0.3-0.8-0.8-0.8-1.4
				C887.1,454.8,887.5,454.6,888,454.8z"/>
			<path class="st5" d="M859,387.6l22.7,13.1c0.5,0.3,0.8,0.8,0.8,1.4c0,0.5-0.4,0.7-0.8,0.4L859,389.4c-0.5-0.3-0.8-0.8-0.8-1.4
				C858.2,387.5,858.5,387.3,859,387.6z"/>
			<path class="st18" d="M859,387.6l22.7,13.1c0.5,0.3,0.8,0.8,0.8,1.4c0,0.5-0.4,0.7-0.8,0.4L859,389.4c-0.5-0.3-0.8-0.8-0.8-1.4
				C858.2,387.5,858.5,387.3,859,387.6z"/>
			<path class="st5" d="M859,394.8l7.7,4.4c0.5,0.3,0.8,0.8,0.8,1.4c0,0.5-0.4,0.7-0.8,0.4l-7.7-4.4c-0.5-0.3-0.8-0.8-0.8-1.4
				C858.2,394.7,858.5,394.5,859,394.8z"/>
			<path class="st18" d="M859,394.8l7.7,4.4c0.5,0.3,0.8,0.8,0.8,1.4c0,0.5-0.4,0.7-0.8,0.4l-7.7-4.4c-0.5-0.3-0.8-0.8-0.8-1.4
				C858.2,394.7,858.5,394.5,859,394.8z"/>
			<path class="st5" d="M859,402l7.7,4.4c0.5,0.3,0.8,0.8,0.8,1.4c0,0.5-0.4,0.7-0.8,0.4l-7.7-4.4c-0.5-0.3-0.8-0.8-0.8-1.4
				C858.2,401.9,858.5,401.7,859,402z"/>
			<path class="st18" d="M859,402l7.7,4.4c0.5,0.3,0.8,0.8,0.8,1.4c0,0.5-0.4,0.7-0.8,0.4l-7.7-4.4c-0.5-0.3-0.8-0.8-0.8-1.4
				C858.2,401.9,858.5,401.7,859,402z"/>
			<path class="st5" d="M859,409.2l7.7,4.4c0.5,0.3,0.8,0.8,0.8,1.4c0,0.5-0.4,0.7-0.8,0.4L859,411c-0.5-0.3-0.8-0.8-0.8-1.4
				C858.2,409.1,858.5,409,859,409.2z"/>
			<path class="st18" d="M859,409.2l7.7,4.4c0.5,0.3,0.8,0.8,0.8,1.4c0,0.5-0.4,0.7-0.8,0.4L859,411c-0.5-0.3-0.8-0.8-0.8-1.4
				C858.2,409.1,858.5,409,859,409.2z"/>
			<path class="st23" d="M871.5,416.4l22.7,13.1c0.5,0.3,0.8,0.8,0.8,1.4c0,0.5-0.4,0.7-0.8,0.4l-22.7-13.1
				c-0.5-0.3-0.8-0.8-0.8-1.4C870.7,416.4,871,416.2,871.5,416.4z"/>
			<path class="st23" d="M897.5,431.4l9.9,5.7c0.5,0.3,0.8,0.8,0.8,1.4c0,0.5-0.4,0.7-0.8,0.4l-9.9-5.7c-0.5-0.3-0.8-0.8-0.8-1.4
				C896.6,431.4,897,431.2,897.5,431.4z"/>
			<path class="st18" d="M871.5,416.4l22.7,13.1c0.5,0.3,0.8,0.8,0.8,1.4c0,0.5-0.4,0.7-0.8,0.4l-22.7-13.1
				c-0.5-0.3-0.8-0.8-0.8-1.4C870.7,416.4,871,416.2,871.5,416.4z"/>
			<path class="st18" d="M897.5,431.4l9.9,5.7c0.5,0.3,0.8,0.8,0.8,1.4c0,0.5-0.4,0.7-0.8,0.4l-9.9-5.7c-0.5-0.3-0.8-0.8-0.8-1.4
				C896.6,431.4,897,431.2,897.5,431.4z"/>
			<path class="st5" d="M859,416.4l7.7,4.4c0.5,0.3,0.8,0.8,0.8,1.4c0,0.5-0.4,0.7-0.8,0.4l-7.7-4.4c-0.5-0.3-0.8-0.8-0.8-1.4
				C858.2,416.4,858.5,416.2,859,416.4z"/>
			<path class="st18" d="M859,416.4l7.7,4.4c0.5,0.3,0.8,0.8,0.8,1.4c0,0.5-0.4,0.7-0.8,0.4l-7.7-4.4c-0.5-0.3-0.8-0.8-0.8-1.4
				C858.2,416.4,858.5,416.2,859,416.4z"/>
			<path class="st5" d="M885,402.6l9.9,5.7c0.5,0.3,0.8,0.8,0.8,1.4c0,0.5-0.4,0.7-0.8,0.4l-9.9-5.7c-0.5-0.3-0.8-0.8-0.8-1.4
				C884.1,402.5,884.5,402.3,885,402.6z"/>
			<path class="st18" d="M885,402.6l9.9,5.7c0.5,0.3,0.8,0.8,0.8,1.4c0,0.5-0.4,0.7-0.8,0.4l-9.9-5.7c-0.5-0.3-0.8-0.8-0.8-1.4
				C884.1,402.5,884.5,402.3,885,402.6z"/>
			<path class="st14" d="M880.9,436.3l22.7,13.1c0.5,0.3,0.8,0.8,0.8,1.4c0,0.5-0.4,0.7-0.8,0.4l-22.7-13.1
				c-0.5-0.3-0.8-0.8-0.8-1.4C880.1,436.3,880.4,436,880.9,436.3z"/>
			<path class="st14" d="M894,451.1l22.8,13.2c0.5,0.3,0.8,0.8,0.8,1.4c0,0.5-0.4,0.7-0.8,0.4l-22.7-13.1c-0.5-0.3-0.8-0.8-0.8-1.4
				C893.1,451.1,893.5,450.9,894,451.1z"/>
			<path class="st14" d="M906.9,451.3l9.9,5.7c0.5,0.3,0.8,0.8,0.8,1.4c0,0.5-0.4,0.7-0.8,0.4l-9.9-5.7c-0.5-0.3-0.8-0.8-0.8-1.4
				C906,451.2,906.5,451.1,906.9,451.3z"/>
			<path class="st2" d="M906.9,479.9l9.9,5.7c0.5,0.3,0.8,0.8,0.8,1.4c0,0.5-0.4,0.7-0.8,0.4l-9.9-5.7c-0.5-0.3-0.8-0.8-0.8-1.4
				C906,479.8,906.5,479.6,906.9,479.9z"/>
			<path class="st5" d="M871.5,402l22.7,13.1c0.5,0.3,0.8,0.8,0.8,1.4c0,0.5-0.4,0.7-0.8,0.4l-22.7-13.2c-0.5-0.3-0.8-0.8-0.8-1.4
				C870.7,401.9,871,401.7,871.5,402z"/>
			<path class="st18" d="M871.5,402l22.7,13.1c0.5,0.3,0.8,0.8,0.8,1.4c0,0.5-0.4,0.7-0.8,0.4l-22.7-13.2c-0.5-0.3-0.8-0.8-0.8-1.4
				C870.7,401.9,871,401.7,871.5,402z"/>
			<path class="st5" d="M897.5,417.1l9.9,5.7c0.5,0.3,0.8,0.8,0.8,1.4c0,0.5-0.4,0.7-0.8,0.4l-9.9-5.7c-0.5-0.3-0.8-0.8-0.8-1.4
				C896.6,416.9,897,416.7,897.5,417.1z"/>
			<path class="st18" d="M897.5,417.1l9.9,5.7c0.5,0.3,0.8,0.8,0.8,1.4c0,0.5-0.4,0.7-0.8,0.4l-9.9-5.7c-0.5-0.3-0.8-0.8-0.8-1.4
				C896.6,416.9,897,416.7,897.5,417.1z"/>
		</g>
		<g id="freepik--Mouse--inject-3_1_">
			<path class="st9" d="M742.5,499.7l13.9,8c4.9,2.5,10.8,2.2,15.4-0.8l23-16.8c4.1-3,3.9-7.4-0.5-10l-7-4.1c-5-2.6-11-2.7-16.2-0.5
				L742.7,491C738.2,493.3,738.1,497.2,742.5,499.7z"/>
			<path class="st3" d="M795.2,482.9l-15.9,12.4l-11.7,9.2c-1.2,0.5-2.4,0.8-3.7,0.9c-1.9,0.1-3.9-0.3-5.6-1.2l-12.5-7.2l0,0h-0.1
				c-4.1-2.6-5.4-8.1-2.8-12.2c0.1-0.1,0.2-0.3,0.3-0.4l0.4-0.5c2.4-3.3,6-5.5,10-6.4l6.3-1.3c10.2-2.1,18.6-3.1,19.6-2.4
				L795.2,482.9L795.2,482.9z"/>
			<path class="st5" d="M786.3,489.8l0.9-0.7l-14-8.1l12.3-3.8l-1.2-0.7l-12.3,3.8l-8.4-4.8l-1.6,0.3L786.3,489.8z"/>
			<path class="st10" d="M768.9,503.7L768.9,503.7L768.9,503.7l11.2-8.1l15.1-10.9V483c0-0.1,0-0.1-0.1-0.1H795
				c-1.1-0.4-7.7,1.6-15.6,4.7l-5.2,2.1c-6.4,2.5-10.5,8.7-10.5,15.5v0.3c1.3-0.1,2.6-0.4,3.7-0.9L768.9,503.7z"/>
		</g>
	</g>
</g>
<g id="freepik--Plant--inject-3_1_">
	<g id="freepik--Pot--inject-3_1_">
		<path class="st5" d="M796.6,726.9c-15.3-15.8-24.4-80.3-9.4-92.8h76.2c15,12.6,5.9,77-9.4,92.8l-0.4,0.4c-0.2,0.2-0.3,0.4-0.5,0.5
			c-0.4,0.4-0.9,0.8-1.4,1.2l-0.4,0.3c-0.4,0.3-0.7,0.6-1.2,0.9c-0.6,0.5-1.3,0.9-2,1.3c-12.6,7.4-33.1,7.4-45.7,0l0,0
			c-0.7-0.4-1.3-0.8-2-1.3c-0.4-0.3-0.7-0.5-1.1-0.8l-0.4-0.4c-0.5-0.4-0.9-0.8-1.3-1.2c-0.2-0.2-0.4-0.4-0.6-0.6
			C796.8,727.1,796.7,727,796.6,726.9z"/>
		<g class="st16">
			<path class="st14" d="M796.6,726.9c-15.3-15.8-24.4-80.3-9.4-92.8h76.2c15,12.6,5.9,77-9.4,92.8l-0.4,0.4
				c-0.2,0.2-0.3,0.4-0.5,0.5c-0.4,0.4-0.9,0.8-1.4,1.2l-0.4,0.3c-0.4,0.3-0.7,0.6-1.2,0.9c-0.6,0.5-1.3,0.9-2,1.3
				c-12.6,7.4-33.1,7.4-45.7,0l0,0c-0.7-0.4-1.3-0.8-2-1.3c-0.4-0.3-0.7-0.5-1.1-0.8l-0.4-0.4c-0.5-0.4-0.9-0.8-1.3-1.2
				c-0.2-0.2-0.4-0.4-0.6-0.6C796.8,727.1,796.7,727,796.6,726.9z"/>
		</g>
		<path class="st5" d="M856.7,629c17.4,10.1,17.4,26.6,0,36.7c-17.4,10.1-45.6,10.1-62.9,0s-17.4-26.6,0-36.7S839.4,618.8,856.7,629
			z"/>
		<g class="st24">
			<path class="st14" d="M856.7,629c17.4,10.1,17.4,26.6,0,36.7c-17.4,10.1-45.6,10.1-62.9,0s-17.4-26.6,0-36.7
				S839.4,618.8,856.7,629z"/>
		</g>
		<path class="st5" d="M848.4,633.9c12.8,7.4,12.8,19.5,0,27c-12.8,7.5-33.5,7.4-46.2,0c-12.8-7.4-12.8-19.5,0-27
			C814.9,626.4,835.6,626.4,848.4,633.9z"/>
		<g class="st25">
			<path d="M848.4,633.9c12.8,7.4,12.8,19.5,0,27c-12.8,7.5-33.5,7.4-46.2,0c-12.8-7.4-12.8-19.5,0-27
				C814.9,626.4,835.6,626.4,848.4,633.9z"/>
		</g>
		<path class="st12" d="M802.2,646.7c12.8-7.4,33.5-7.4,46.2,0c3.1,1.7,5.7,4.1,7.6,7.1c-1.9,3-4.5,5.4-7.6,7.1
			c-12.8,7.4-33.5,7.4-46.2,0c-3.1-1.7-5.7-4.1-7.6-7.1C796.4,650.8,799.1,648.4,802.2,646.7z"/>
		<g id="freepik--Plants--inject-3_1_">
			<path class="st5" d="M819,614.1c-0.9-1.8-1.6-3.6-1.9-5.6c-0.9-4.6,0.3-10,4.1-12.8c1.5-1.1,3.4-2,4.1-3.7c0.3-1,0.3-2.1,0-3.1
				c-0.7-4-2-8-0.9-11.9c1.2-3.6,3.9-6.5,7.4-7.9c3.4-1.4,7.1-2.4,10.8-2.8c2-0.2,3.9-0.8,5.7-1.6c2.1-1.2,2.8-3.3,4.1-5.1
				c1.5-2,3.3-3.9,5.2-5.6c3.9-3.5,8.7-6.3,14.1-6.1c11.2,0.5,10.9,10.1,7.7,17.4c-3.2,7.3-4.1,9.7,3,17.3s7,17-1.3,22.2
				c-8.4,5.2-13.8,5.9-10.5,16.1c3,9,4.8,16.7-3.6,26.4c-5.4,6.2-12.8,10.7-22,10.4c-3.7-0.3-7.4-1.1-10.8-2.5
				c-2.5-1.3-0.8-3.2-1.7-5.7l-5.5-16.1c-1.2-4.3-2.7-8.6-4.4-12.7C821.3,618.3,820.1,616.3,819,614.1z"/>
			<g class="st26">
				<path d="M819,614.1c-0.9-1.8-1.6-3.6-1.9-5.6c-0.9-4.6,0.3-10,4.1-12.8c1.5-1.1,3.4-2,4.1-3.7c0.3-1,0.3-2.1,0-3.1
					c-0.7-4-2-8-0.9-11.9c1.2-3.6,3.9-6.5,7.4-7.9c3.4-1.4,7.1-2.4,10.8-2.8c2-0.2,3.9-0.8,5.7-1.6c2.1-1.2,2.8-3.3,4.1-5.1
					c1.5-2,3.3-3.9,5.2-5.6c3.9-3.5,8.7-6.3,14.1-6.1c11.2,0.5,10.9,10.1,7.7,17.4c-3.2,7.3-4.1,9.7,3,17.3s7,17-1.3,22.2
					c-8.4,5.2-13.8,5.9-10.5,16.1c3,9,4.8,16.7-3.6,26.4c-5.4,6.2-12.8,10.7-22,10.4c-3.7-0.3-7.4-1.1-10.8-2.5
					c-2.5-1.3-0.8-3.2-1.7-5.7l-5.5-16.1c-1.2-4.3-2.7-8.6-4.4-12.7C821.3,618.3,820.1,616.3,819,614.1z"/>
			</g>
			<path class="st14" d="M834.3,655.1c0.3-0.1,0.6-0.4,0.5-0.8c-0.5-55.3,30-88.4,30.3-88.7c0.3-0.3,0.3-0.9,0-1.2
				c-0.3-0.3-0.8-0.3-1.2,0c-0.3,0.3-31.3,33.8-30.8,89.8c0,0.4,0.3,0.8,0.8,0.8c0,0,0,0,0,0L834.3,655.1z"/>
			<path class="st14" d="M843.1,603.6l0.2-0.1c9.9-6.3,27.6-10.9,27.8-11c0.4-0.1,0.7-0.6,0.6-1c-0.1-0.4-0.5-0.7-1-0.6c0,0,0,0,0,0
				c-0.7,0.2-18.1,4.8-28.3,11.1c-0.4,0.2-0.5,0.7-0.3,1.1c0,0,0,0,0,0C842.4,603.6,842.8,603.8,843.1,603.6z"/>
			<path class="st14" d="M846.2,596L846.2,596c0.4-0.2,0.6-0.7,0.5-1.1c-2.3-5.5-5.4-10.7-9.2-15.4c-0.3-0.3-0.8-0.4-1.1-0.1
				c0,0,0,0,0,0c-0.3,0.3-0.4,0.8-0.1,1.2c3.6,4.6,6.6,9.6,8.9,15C845.3,595.9,845.8,596.2,846.2,596C846.2,596,846.2,596,846.2,596
				z"/>
			<path class="st5" d="M826.5,661c-7.9,2.4-16.3,2.8-24.3,0.9c-13.9-3-22.5-16-22.5-16s15.1-6,23.9-6.6c-8.8-1.3-17.7-1.1-26.4,0.6
				c0,0-8.1-3-6.6-16.6c0,0,7.6-5.6,25.1-3.4c0,0-8.8-6.3-24.1-8.1c-1.2,0,0.4-17.7,1.9-25.7c1.5-7.9,4.4-6.7,10.6-6
				c6.2,0.7,24.9,4.9,27.2,9.5c2.4,4.6,0.1,16.2,0.1,16.2c3.2-4.4,5-9.7,5.1-15.2c0,0,7,2.6,10.7,5.9c2.8,2.3,5.1,5.1,6.7,8.4
				c-0.9,6.2-3.8,15.7-7.9,21c0,0,9.3-6,11.4-17c4.6,6.3,7.2,13.9,7.4,21.7C844.7,644.4,838.4,654.7,826.5,661z"/>
			<path class="st27" d="M826.5,661c-7.9,2.4-16.3,2.8-24.3,0.9c-13.9-3-22.5-16-22.5-16s15.1-6,23.9-6.6
				c-8.8-1.3-17.7-1.1-26.4,0.6c0,0-8.1-3-6.6-16.6c0,0,7.6-5.6,25.1-3.4c0,0-8.8-6.3-24.1-8.1c-1.2,0,0.4-17.7,1.9-25.7
				c1.5-7.9,4.4-6.7,10.6-6c6.2,0.7,24.9,4.9,27.2,9.5c2.4,4.6,0.1,16.2,0.1,16.2c3.2-4.4,5-9.7,5.1-15.2c0,0,7,2.6,10.7,5.9
				c2.8,2.3,5.1,5.1,6.7,8.4c-0.9,6.2-3.8,15.7-7.9,21c0,0,9.3-6,11.4-17c4.6,6.3,7.2,13.9,7.4,21.7
				C844.7,644.4,838.4,654.7,826.5,661z"/>
			<path class="st14" d="M828.3,659.9c-0.3-0.1-0.5-0.4-0.5-0.7c-2.1-26.4-31.7-67.7-44.7-75.9c-0.4-0.2-0.5-0.7-0.3-1.1
				c0.2-0.4,0.7-0.5,1.1-0.3c13.3,8.4,43.3,50.3,45.4,77.2c0,0.4-0.3,0.8-0.7,0.9c0,0,0,0,0,0C828.6,659.9,828.4,659.9,828.3,659.9z
				"/>
		</g>
	</g>
</g>
<g id="freepik--Character--inject-3_1_">
	<g id="freepik--character--inject-3_1_">
		<path class="st28" d="M561.1,643.3c0-0.3-4.7-17.4-4.7-17.4s1.6,1.6,11.5-1c3.7-1.1,7.4-2.6,10.8-4.5l2.8,12.5
			c2.6,4.8,11.4,2.6,21,1.5c1.6-0.2,3.3-0.5,4.9-0.7h0.1c5.2-0.3,10.4,2.8,5,7.2c-5.4,4.4-14.3,6.1-22.4,7.6
			C580.2,650.2,562.9,653.1,561.1,643.3z"/>
		<path class="st10" d="M629.9,641.8c0.7,1.7,1,3.5,0.7,5.3c-0.2,1.9-4.9,8.4-13.3,12.4c-8.4,4-18.7,4.2-23.5,5.6
			c-4.8,1.4-9.3,4.2-15,5.5c-5.7,1.4-11.3,2.1-17-1.6c-1-1.6-2.2-5.4-1.9-5.7C561,662.3,629.9,641.8,629.9,641.8z"/>
		<path class="st5" d="M583,634.5c3.7,2.5,11.3,0.8,19.5-0.2c7.7-0.9,16.5-3.6,21.7-1.8c5.3,1.8,9.7,8,2.5,16
			c-2.1,2.3-6.4,6.3-9.9,7.6c-8.9,3.2-16.8,3.4-22.4,4.8c-7.4,1.8-11.4,5.1-18.3,5.9c-8.9,1-14.5-1.2-16-3.6s-3-21.4,0.8-21
			c0,0,1.6,6.2,16.1,0.2C583.3,639.8,583.2,635.9,583,634.5z"/>
		<path class="st8" d="M583,634.5c3.7,2.5,11.3,0.8,19.5-0.2c7.7-0.9,16.5-3.6,21.7-1.8c5.3,1.8,9.7,8,2.5,16
			c-2.1,2.3-6.4,6.3-9.9,7.6c-8.9,3.2-16.8,3.4-22.4,4.8c-7.4,1.8-11.4,5.1-18.3,5.9c-8.9,1-14.5-1.2-16-3.6s-3-21.4,0.8-21
			c0,0,1.6,6.2,16.1,0.2C583.3,639.8,583.2,635.9,583,634.5z"/>
		<path class="st29" d="M607.5,644.8c0,0-0.8-8-6.8-10.2c-1.1-0.5-2.4-0.3-3.3,0.4c0,0,5.5,0.8,7.4,10.2c0,0,0.3,0.6,1.5,0.4
			C606.7,645.6,607.6,645.4,607.5,644.8z"/>
		<path class="st29" d="M592.4,635.6c0,0,0-0.3,1.4-0.5c0.6-0.1,1.1-0.1,1.6,0.2c0,0,4.4,1.9,5.3,10.4c0,0,0,1-1.4,1.3
			c-0.6,0.2-1.3-0.1-1.6-0.7c0,0,0-0.1,0-0.1C597.7,646.1,596.8,637.3,592.4,635.6z"/>
		<path class="st29" d="M587.6,635.8c0,0,0.3-0.5,1.3-0.5c1.3,0,1.6,0.5,1.6,0.5s3.2,3.2,3.2,10.3c0,0,0.1,1.2-1.5,1.3
			c-1.6,0.1-1.5-1.2-1.5-1.2S590.2,637.2,587.6,635.8z"/>
		<path class="st3" d="M555,526.8c7.2,21.8,26.5,96.8,26.5,96.8s-12.5,11.2-26.1,6.1l-32.3-93.4L555,526.8z"/>
		<path class="st28" d="M610.9,667.6c-1.5-2.2-7-17.4-7-17.4s5.8,3.3,15.8,0.9c5.1-1.2,9.8-6.7,9.8-6.7l4.3,14.7
			c2.5,4.9,10.7,3.3,20.3,2.4c1.6-0.1,3.3-0.4,4.9-0.6h0.1c5.2-0.1,10.4,3.1,4.8,7.4s-14.4,5.7-22.6,7
			C631.4,676.7,616.5,675.8,610.9,667.6z"/>
		<path class="st10" d="M685.5,667.1c0.7,1.8,0.9,3.8,0.6,5.7c-0.3,2-5.5,8.9-14.6,12.9c-9,4-20.2,4.1-25.4,5.4
			c-5.2,1.4-10,4.2-16.2,5.6c-6.2,1.3-12.2,2-18.2-2.2c-1.1-1.8-2.2-5.8-1.9-6.2C610.9,687.2,685.5,667.1,685.5,667.1z"/>
		<path class="st5" d="M635.3,657.9c0.6,0.4,1.2,0.8,1.8,1.1c0.6,0.3,1.3,0.4,2,0.4c1.6,0.2,3.2,0.2,4.9,0.1
			c4.1-0.2,8.1-0.8,12.1-1.2c8.3-0.7,17.7-3.4,23.3-1.3c5.6,2.1,10.7,8.9,2.9,17.2c-3,3.2-6.6,5.9-10.5,8c-9.3,3.9-19,3.2-25.1,4.5
			c-8,1.8-12.4,5.2-19.8,5.8c-9.5,0.9-15.5-1.7-17.1-4.3c-0.9-1.5,0.1-8.9-1.1-14.7c-1-5-0.8-8.4,1-8.2c0.4,0.6,0.9,1.2,1.4,1.8
			c0.6,0.7,1.3,1.3,2.1,1.7c1.1,0.5,2.3,0.9,3.6,1.2c2.2,0.7,4.4,1,6.6,0.9c0.6,0,1.3-0.2,1.8-0.6c0.6-0.6,1-1.4,1-2.2
			c0.1-0.7,0.3-1.5,0.5-2.2c0.1-0.4,0.2-0.8,0.4-1.1c0.3-0.4,0.7-0.7,1.1-0.9c1.4-0.6,2.7-1.6,3.6-2.8c0.6-1.1,1-2.2,1.1-3.4
			c0-0.2,0.1-0.4,0.2-0.6c0.3-0.2,0.7,0,1,0.2L635.3,657.9z"/>
		<path class="st8" d="M635.3,657.9c0.6,0.4,1.2,0.8,1.8,1.1c0.6,0.3,1.3,0.4,2,0.4c1.6,0.2,3.2,0.2,4.9,0.1
			c4.1-0.2,8.1-0.8,12.1-1.2c8.3-0.7,17.7-3.4,23.3-1.3c5.6,2.1,10.7,8.9,2.9,17.2c-3,3.2-6.6,5.9-10.5,8c-9.3,3.9-19,3.2-25.1,4.5
			c-8,1.8-12.4,5.2-19.8,5.8c-9.5,0.9-15.5-1.7-17.1-4.3c-0.9-1.5,0.1-8.9-1.1-14.7c-1-5-0.8-8.4,1-8.2c0.4,0.6,0.9,1.2,1.4,1.8
			c0.6,0.7,1.3,1.3,2.1,1.7c1.1,0.5,2.3,0.9,3.6,1.2c2.2,0.7,4.4,1,6.6,0.9c0.6,0,1.3-0.2,1.8-0.6c0.6-0.6,1-1.4,1-2.2
			c0.1-0.7,0.3-1.5,0.5-2.2c0.1-0.4,0.2-0.8,0.4-1.1c0.3-0.4,0.7-0.7,1.1-0.9c1.4-0.6,2.7-1.6,3.6-2.8c0.6-1.1,1-2.2,1.1-3.4
			c0-0.2,0.1-0.4,0.2-0.6c0.3-0.2,0.7,0,1,0.2L635.3,657.9z"/>
		<path class="st29" d="M661.3,669.7c0,0-0.7-8.7-7-11.1c-1.2-0.6-2.5-0.4-3.5,0.4c0,0,5.9,1,7.6,11.2c0,0,0.3,0.7,1.6,0.5
			C660.4,670.5,661.3,670.4,661.3,669.7z"/>
		<path class="st29" d="M645.3,659.5c0,0,0-0.3,1.5-0.5c0.6-0.1,1.2,0,1.7,0.2c0,0,4.7,2.2,5.4,11.2c0,0,0,1.1-1.5,1.3
			c-0.7,0.2-1.4-0.2-1.7-0.8c0,0,0-0.1,0-0.1C650.7,670.8,650,661.3,645.3,659.5z"/>
		<path class="st29" d="M640.2,659.6c0,0,0.3-0.5,1.4-0.5c1.4,0,1.7,0.6,1.7,0.6s3.3,3.6,3.2,11.1c0,0,0.1,1.3-1.7,1.4
			c-1.8,0.1-1.5-1.3-1.5-1.3S642.9,661.1,640.2,659.6z"/>
		<path class="st4" d="M606,552.5c5.7,17.6,20.3,67.5,26.9,93.2c0,0-12,10.8-27.4,9.8l-37.1-96.2l14.8-9.1L606,552.5z"/>
		<path class="st4" d="M483.9,792.7c1.3,0,2.4-1.1,2.4-2.4l0,0V635.6c0-1.3-1.1-2.4-2.4-2.4c-1.3,0-2.4,1.1-2.4,2.4v154.7
			C481.5,791.6,482.6,792.7,483.9,792.7z"/>
		<path class="st4" d="M388.2,736.5c1,0,1.9-0.6,2.2-1.5l47.4-120c0.6-1.2,0.1-2.6-1.1-3.2s-2.6-0.1-3.2,1.1
			c-0.1,0.1-0.1,0.3-0.2,0.4l-47.5,119.9c-0.5,1.2,0.1,2.6,1.3,3.1C387.6,736.4,387.9,736.4,388.2,736.5z"/>
		<path class="st4" d="M393.9,722c0.7,0,1.3-0.3,1.7-0.8l88.3-93.4l88.1,93c1,0.9,2.5,0.9,3.4-0.1c0.8-0.9,0.9-2.3,0.1-3.2
			l-89.8-94.8c-0.5-0.5-1.1-0.8-1.7-0.8l0,0c-0.7,0-1.3,0.3-1.7,0.8l-90,95.2c-0.9,1-0.9,2.5,0.1,3.4
			C392.7,721.8,393.3,722,393.9,722L393.9,722z"/>
		<path class="st4" d="M579.6,736.5c0.3,0,0.6-0.1,0.9-0.2c1.2-0.5,1.8-1.9,1.3-3.1l-47.4-120c-0.3-1.3-1.6-2.1-2.9-1.8
			c-1.3,0.3-2.1,1.6-1.8,2.9c0.1,0.2,0.1,0.4,0.3,0.6l47.4,120C577.7,735.8,578.6,736.4,579.6,736.5z"/>
		<path class="st5" d="M580.7,582.6c1.7-9.7-6.2-17.3-21-27.3c-13.8-9.1-28.2-17.2-43.1-24.2c-12.5-5.7-25.1-5.2-41.1,3
			c-22.2,11.4-88.7,51.8-88.7,51.8s99.6,56.2,118.7,53.7c19.1-2.5,67-33.7,70.8-44.6S580.7,582.6,580.7,582.6z"/>
		<g class="st30">
			<path d="M580.7,582.6c1.7-9.7-6.2-17.3-21-27.3c-13.8-9.1-28.2-17.2-43.1-24.2c-12.5-5.7-25.1-5.2-41.1,3
				c-22.2,11.4-88.7,51.8-88.7,51.8s99.6,56.2,118.7,53.7c19.1-2.5,67-33.7,70.8-44.6S580.7,582.6,580.7,582.6z"/>
		</g>
		<path class="st5" d="M495.9,627.7c14.3,12.9,29.2,1.8,52.9-13.5c26.8-17.3,32-31.6,32-31.6s0,10.6-2,15.6c-2,5-6.3,10.6-25.6,23.9
			c-19.3,13.3-33.3,19.9-46.2,22.4l-10.2-1.4"/>
		<path class="st7" d="M548.7,614.1c26.8-17.3,32-31.6,32-31.6s0,10.6-2,15.6c-2,5-6.3,10.6-25.6,23.9s-33.3,19.9-46.2,22.4
			l-10.2-1.4l-0.8-15.5C510.1,640.6,525.1,629.5,548.7,614.1z"/>
		<path class="st5" d="M391.8,717.6l-7.4,16.9c0,0.1-0.1,0.3-0.1,0.4c0,0.1,0,0.2,0,0.3c0.2,0.5,0.5,0.9,0.9,1.1
			c1.2,0.7,2.7,0.8,4,0.2c0.4-0.2,0.6-0.4,0.8-0.8l0,0v-0.2l6.8-15.8L391.8,717.6z"/>
		<path class="st5" d="M576.3,718.3l6.3,16.5c0,0.1,0,0.3,0,0.4v0.3c-0.2,0.5-0.5,0.8-0.9,1c-1.2,0.6-2.6,0.6-3.8,0
			c-0.3-0.2-0.6-0.4-0.8-0.8l0,0v-0.2l-5.8-15.5L576.3,718.3z"/>
		<path class="st5" d="M481.1,778.3V792c0.1,0.5,0.4,0.9,0.8,1.1c1.2,0.6,2.7,0.6,3.9,0c0.4-0.2,0.8-0.6,0.8-1.1v-13.7
			C484.9,777.4,482.8,777.4,481.1,778.3z"/>
		<path class="st3" d="M426.7,524.6c5.7,6.6,57.3-8.2,71-10.1c22-3,39.9-5.2,47.5-2.8c7.5,2.4,10.7,6.2,13,15.1
			c2.7,10.6,4.1,16,4.1,16s-36.6,14-65.5,17.4C467.7,563.6,426.7,524.6,426.7,524.6z"/>
		<path class="st4" d="M417,534.3c-5.7,21.8-10.9,47.1,2.4,61c8.9,9.3,53.7,33.6,82.6,24.1c28.5-9.4,87.4-53.2,93.3-57.6
			s11.3-7.4,10.7-9.3c-7.9-26.4-19.6-28.5-41.1-23.7c-26.4,5.8-84.2,29.4-84.2,29.4L417,534.3z"/>
		<polygon class="st28" points="547.9,394.2 528,416.6 495.9,401.4 518.3,370.4 		"/>
		<path class="st31" d="M572.5,351.5c0,0,8.1,11.7,7.3,12.9c-0.9,1.2-6.6,2.4-6.6,2.4L572.5,351.5z"/>
		<path class="st10" d="M572.5,359.2c-5.4,0-9.7-4.4-9.7-9.7c0-5.4,4.4-9.7,9.7-9.7c5.4,0,9.7,4.4,9.7,9.7
			C582.2,354.9,577.8,359.2,572.5,359.2z M572.5,341.6c-4.4,0-7.9,3.6-7.9,7.9c0,4.4,3.6,7.9,7.9,7.9s7.9-3.6,7.9-7.9c0,0,0,0,0,0
			C580.4,345.2,576.8,341.6,572.5,341.6L572.5,341.6z"/>
		<path class="st28" d="M550,319c16,3,20.7,9.9,22.8,35.1c2.2,26.4-0.3,34.7-3.7,38.4c-2.3,2.5-15.3,3.2-21.9,1.5
			c-8.3-2.1-27-8.2-36-21.3c-10.6-15.4-13.8-36.5-3-45.4C523.3,314.6,543.4,317.8,550,319z"/>
		<path class="st31" d="M547.9,394.2c6.9,1.5,17.3,0.6,20.5-1.2c-3.8,0.8-7.8,0.7-11.6-0.4c-3.8-1-7.3-2.6-10.6-4.7L547.9,394.2z"/>
		<path class="st10" d="M575.7,329.3L575.7,329.3c-4.4,3.1-9.9,4.3-15.3,5.2c0.4,4.3-0.9,8.5-2.3,12.6c-0.9,2.8-4.2,11.7-7.9,6.8
			c-2.6-3.5-5-6.7-10-5.9c-8.3,1.5-9.1,12-3.8,18.3c5.4,6.3,10.2,3.7,10.2,3.7s0.8,11.4-5.2,19.4c0,0-8.9,5.5-21.5,1.4
			c-7.9-2.6-19.4-12.6-23.6-20.4c-11.6-21.5-11.7-42.1,2.4-48.4c1.3-10.4,9.3-15.1,18.4-17.4c12.7-3.2,25.9,4.7,38.2-0.5
			c2.6-1.1,5-2.7,7.6-3.6c1.4-0.7,3.1-0.7,4.6,0c1.1,0.9,1.8,2.1,2,3.5c0.8,2.4,0.6,5.1-0.5,7.4c1.8-1,3.8-1.7,5.8-2.1
			c2-0.4,4.2,0.1,5.8,1.3c1.4,1.3,2.2,3.2,2.3,5.1C583.5,321,580.2,326.2,575.7,329.3z"/>
		<path class="st10" d="M498.6,325.5l-9.6-5.4c1.4-2.7,4.7-3.8,7.4-2.5c2.7,1.4,3.8,4.7,2.5,7.4
			C498.8,325.3,498.7,325.4,498.6,325.5z"/>
		
			<rect x="550" y="350.3" transform="matrix(0.983 -0.1834 0.1834 0.983 -54.8057 109.7348)" class="st10" width="31.4" height="1.5"/>
		<path class="st28" d="M614.9,407.3c-0.8-1.4-2.7-1.7-4.2-2.2c-2.8-1-5.1-3.3-7.8-4.4c-3.1-1.3-6.6-1.5-9.8-0.7
			c-1.1,0.3-2.2,0.6-3.3,1c-2,0.8-4,1.8-5.9,3c-7.8,4.6-13.7,15.1-21.4,19.9c-2.9,1.8-5.5,3.4-8.2,5l18.4,16.3
			c2.9-2.5,5.9-4.8,9.1-6.9c4.5-2.7,9.1-2.8,14.2-3.5c3.5-0.6,7-1.5,10.4-2.6c1.3-0.2,2.4-0.9,3.1-2c0.5-1.6-0.4-3.3-2-3.8
			c-1.8-0.4-3.6-0.7-5.4-0.7c-1.3-0.2-4.9,0.6-5.7-0.8c-0.4-0.7,0.1-1.6,0.6-2.2c3.2-4,7.2-8.2,12.3-9.4c1.6-0.3,3.1-0.9,4.4-1.8
			C615.1,410.6,615.6,408.8,614.9,407.3z"/>
		<path class="st5" d="M504.9,389c-19.5-10.7-37.3-3.8-43.7,9.9c-5.8,12.4-18,60.4-18,60.4C449.1,470.3,504.9,389,504.9,389z"/>
		<path class="st5" d="M502,392.8l3-3.9c-22.1-10.5-41.8,3.3-59.2,30.3c-18.8,29.2-28.6,71-28.7,115.2c0,0,3.7,19.9,28.8,29.8
			c26.6,10.5,63.7,6.1,75.3-21.5c0,0,0.2-27.5,8.6-41.1c5.4-8.8,18.1-28.3,27.5-42.3c8.2-12.2,14.6-39.9-2.5-50.1
			c-4.5-2.6-9.2-5-13.9-7.1C525.3,407.3,500,399,502,392.8z"/>
		<path class="st32" d="M502.1,392.9l2.9-4c-22.1-10.5-41.8,3.3-59.2,30.3c-18.8,29.2-28.6,71-28.7,115.2c0,0,3.7,19.9,28.8,29.8
			c26.6,10.5,63.7,6.1,75.3-21.5c0,0,0.2-27.5,8.6-41.1c5.4-8.8,18.1-28.3,27.5-42.3c8.2-12.2,14.6-39.9-2.5-50.1
			c-4.5-2.6-9.2-5-13.9-7.1C525.3,407.3,500,399.1,502.1,392.9z"/>
		<path class="st33" d="M564.4,441.7c1.2-5.3,1.4-10.7,0.7-16.1l0,0c-4,9.4-9.6,18-16.7,25.4c-9,9.4-20.1,16.8-28.4,26.8
			c-8.9,10.6-15.2,23.5-22.6,35.1c-3,4.7-7,13.6-12.5,14c-6.7,0.4-13.1-7.7-16.8-13.4c-5.9-9-10.9-20.2-18.1-28.1
			c-6.3-6.9-16.2-15.7-24.8-11.7l0,0c-0.7,2.3-1.3,4.6-1.8,7c-0.6,2.3-1.1,4.8-1.6,7.1c0,0.1,0,0.2,0,0.3c-0.5,2.4-0.9,4.8-1.4,7.2
			c0,0.1,0,0.3,0,0.4c-0.4,2.4-0.8,4.8-1.1,7.2c-1.5,10.5-2.2,21.1-2.2,31.7c0,0,3.7,19.9,28.8,29.8c26.6,10.5,63.7,6.1,75.3-21.5
			c0,0,0.2-27.5,8.6-41.1c0.8-1.4,1.9-3,3-4.8l0,0l0.2-0.3c1-1.5,2-3.1,3.1-4.9c0-0.1,0.1-0.2,0.2-0.3c0,0,0-0.1,0-0.1
			c2.4-3.7,5.1-7.9,7.9-12.2l1.3-1.9c2.7-4.1,5.4-8.3,8-12.2l0,0c0.9-1.3,1.7-2.6,2.6-3.9c0.4-0.5,0.7-1.1,1.1-1.6l0,0
			c0.3-0.4,0.6-0.9,0.9-1.4l0.3-0.4l0.6-1.1l0.3-0.5l0.7-1.3c0-0.1,0.1-0.2,0.2-0.3c0.3-0.6,0.5-1.2,0.8-1.8v-0.1v-0.1
			c0.2-0.6,0.5-1.1,0.7-1.7c0-0.1,0.1-0.3,0.1-0.4c0.2-0.5,0.4-1.1,0.6-1.6v-0.1v-0.2c0.4-1,0.7-2.1,1-3.1l0,0
			c0.3-1.1,0.6-2.2,0.8-3.3v-0.1L564.4,441.7z"/>
		<path class="st28" d="M666.7,468.5c-1.4,1.7-2.9,3.3-4.6,4.7c-6.7,6.1-14.6,9.1-23.8,15c-7.4,4.8-18.8,11.8-28.5,17.8
			c-9.7,6-20.2,10.8-31.1,14.3c-8.9,2.6-13.9,2.7-19.2-11.6c-2.6-7-4.6-14.2-6.9-21.4c-3.3-10.6-6.6-21.3-9.8-32
			c-4.8-16-11.8-29.3,14.8-44.1c11.6,6.6,16,9.3,19.6,23.2c4.3,16.6,11.4,49.4,11.4,49.4c9.4-3.3,18.6-7.2,27.5-11.7
			c3.4-1.7,7.5-2.8,9.9-5.8c1.6-2.1,3-4.3,4.2-6.6c1.1-2,2-4.3,3.2-6.2c2.5-3.5,5.5-6.8,8.7-9.6c0.5-0.7,1.3-1.1,2.1-1.3
			c0.9,0,1.7,0.5,2.1,1.3c1,1.7,0.1,3.4-0.4,5.1c-0.6,2-1.2,4-1.7,5.9c6.8-3.9,12.6-9.3,17-15.8c0.4-0.6,0.8-1.2,1.3-1.7
			c0.5-0.5,1.2-0.8,2-0.7c1.8,0.2,3.5,3.1,3.6,4.7c-0.1,1.7-0.1,3.3,0.1,5c0.4,1.5,1.5,2.8,1.9,4.3c0.5,1.6,0.8,3.2,1,4.8
			c0.2,3.6-0.7,7.1-2.7,10C668.1,466.7,667.5,467.6,666.7,468.5z"/>
		<path class="st5" d="M556.1,410.2c10.1,4.1,17.4,8.7,22,24.2c4.6,15.5,9.6,40.4,9.6,40.4s0.1,5.2-12.2,12.5
			c-7.2,4.3-15.8,5.5-23.8,3.2l-9.3-29.9C542.5,460.5,526,420.5,556.1,410.2z"/>
		<path class="st5" d="M496.7,643.2c-8.1-0.4-14.5-6.4-33.8-14.4c-35.7-14.9-62.5-26.8-72.7-45.5s-17.4-72.7-14.9-96.1
			c0.2-2.6,0.8-5.3,1.7-7.7l-2.5-0.4l6.5-5.5l0,0c6.7-5.4,17.5-0.6,25.7,3.9c23.4,12.7,41.7,25.1,56.2,69.8
			c10.9,33.6,18,64.2,33.1,80.6"/>
		<path class="st34" d="M376.9,479.3l-2.5-0.4l6.5-5.5l0,0c6.7-5.4,17.5-0.6,25.7,3.9c23.4,12.7,41.7,25.1,56.2,69.8
			c10.9,33.6,18,64.2,33.1,80.6l0.8,15.5c-8.1-0.4-14.5-6.4-33.8-14.4c-35.8-14.9-62.6-26.8-72.8-45.5s-17.4-72.7-14.9-96.1
			C375.4,484.4,376,481.8,376.9,479.3z"/>
		<path class="st5" d="M399.9,483.1c23.4,12.7,41.7,25.1,56.2,69.8c14.5,44.6,22.4,84.1,50.9,91.8c0,0-12.9,5.1-52.4-11.6
			c-12.6-5.3-27.8-15-37.8-20.6c-19.6-11-31.5-20-33.4-23.4c-10.4-18.6-17.4-72.7-14.9-96.1C371,469.4,388.2,476.7,399.9,483.1z"/>
	</g>
</g>
<g id="freepik--speech-bubble--inject-3_8_">
	<g id="freepik--speech-bubble--inject-3_9_">
		<path class="st5" d="M531.3,285l-6.4-12.1l5.2-15v-9.2l-15.9,9.2v9.2l6.8,11.8c0.1,0.2,0.3,0.3,0.5,0.4l0,0L531.3,285z"/>
		<path class="st35" d="M531.3,285l-6.4-12.1l5.2-15v-9.2l-15.9,9.2v9.2l6.8,11.8c0.1,0.2,0.3,0.3,0.5,0.4l0,0L531.3,285z"/>
		<path class="st5" d="M569.3,175.6c-0.2-3.4-2-6.4-4.8-8.3l-3.9-2.2c-3-1.5-6.5-1.5-9.5,0l-59.5,34.4c-2.8,1.8-4.6,4.9-4.8,8.3
			v65.5c0.2,3.4,2,6.4,4.8,8.3l3.9,2.2c3,1.5,6.5,1.5,9.5,0l19.1-11.1l6.8,11.8c0.3,0.5,0.9,0.7,1.4,0.4c0.2-0.1,0.4-0.3,0.5-0.6
			l7.2-20.8l24.5-14.2c2.8-1.9,4.6-4.9,4.7-8.3V175.6z"/>
		<path class="st35" d="M486.8,273.4c0.2,3.4,2,6.4,4.8,8.3l3.9,2.2c2.7,1.4,5.9,1.5,8.7,0.4c-2.2,0.8-4-0.4-4-3.1v-65.5
			c0.1-1.7,0.5-3.3,1.4-4.7l-13.4-7.7c-0.9,1.4-1.3,3-1.4,4.7V273.4z"/>
		<path class="st15" d="M569.2,174.3c-0.5-2-2.4-2.7-4.6-1.4L505,207.3c-1.4,0.9-2.6,2.1-3.4,3.6l-13.4-7.7c0.8-1.4,2-2.7,3.4-3.5
			l59.5-34.5c3-1.5,6.5-1.5,9.5,0l3.9,2.2C567,169,568.7,171.5,569.2,174.3z"/>
		<g id="freepik----inject-3_7_">
			<path class="st14" d="M509,241.3c0-0.5,0.1-0.9,0.2-1.4c0.2-0.4,0.4-0.9,0.7-1.3l13-20.9c0.1-0.1,0.1-0.2,0.2-0.3l0.1-0.1
				c0.1-0.1,0.3-0.1,0.5,0c0.2,0.2,0.2,0.4,0.2,0.6v8.1c0,0.6-0.1,1.2-0.4,1.7c-0.2,0.4-0.4,0.8-0.7,1.1l-6.7,10.2l6.7,3.1
				c0.2,0.1,0.4,0.2,0.7,0.3c0.3,0.2,0.4,0.6,0.4,1.2v5.7c0,0.3-0.1,0.6-0.2,0.9c-0.1,0.2-0.3,0.4-0.5,0.6h-0.1c-0.1,0-0.1,0-0.2,0
				l-13-5.9c-0.3-0.1-0.5-0.3-0.7-0.5c-0.2-0.3-0.3-0.7-0.2-1.1V241.3z"/>
			<path class="st14" d="M537.2,209c0.1-0.4,0.3-0.9,0.5-1.3c0.2-0.4,0.5-0.8,0.9-1l4.3-2.6c0.1-0.1,0.4-0.1,0.5,0
				c0.2,0.2,0.2,0.4,0.2,0.7c0,0.2,0,0.3,0,0.5l-10.9,46.6c-0.1,0.4-0.3,0.9-0.5,1.3c-0.2,0.4-0.5,0.8-1,1l-4.2,2.5
				c-0.1,0.1-0.4,0.1-0.5,0c-0.2-0.2-0.2-0.4-0.2-0.7c0-0.2,0-0.3,0-0.5L537.2,209z"/>
			<path class="st14" d="M561,216.5c0,0.5-0.1,0.9-0.2,1.4c-0.2,0.4-0.4,0.9-0.7,1.3l-13,20.9c-0.1,0.1-0.1,0.2-0.2,0.2l-0.1,0.1
				c-0.1,0.1-0.3,0.1-0.5,0c-0.2-0.2-0.2-0.4-0.2-0.6v-8.1c0-0.6,0.1-1.1,0.4-1.7c0.3-0.4,0.5-0.8,0.7-1.1l5.7-8.8l-5.7-2.2
				c-0.2-0.1-0.5-0.2-0.7-0.3c-0.3-0.2-0.4-0.6-0.4-1.3v-8.1c0-0.3,0.1-0.6,0.2-0.9c0.1-0.2,0.3-0.4,0.5-0.6h0.1h0.2l13,5.9
				c0.6,0.2,1.1,0.8,0.9,1.5L561,216.5z"/>
		</g>
	</g>
</g>
<g id="freepik--text-boxes--inject-3_1_">
	<g id="freepik--text-box--inject-3_5_">
		<g id="freepik----inject-3_6_">
			<g id="freepik--speech-bubble--inject-3_7_">
				<g id="freepik--speach-bubble--inject-3_5_">
					<path class="st10" d="M388.1,167.4l-79.7,45.9c-1.2,0.8-1.9,2-2,3.4v44.5c0.1,1.4,0.8,2.7,2,3.5l7.9,4.4c1.2,0.6,2.7,0.6,4,0
						l79.7-45.8c1.2-0.8,1.9-2,2-3.4v-44.6c-0.1-1.4-0.8-2.7-2-3.4l-7.9-4.4C390.9,166.8,389.4,166.8,388.1,167.4z"/>
					<path class="st4" d="M401.9,174.9c-0.1-1-1-1.4-2-0.8l-79.7,45.9c-0.6,0.4-1.1,0.9-1.4,1.5l-11.8-6.8c0.3-0.6,0.8-1.1,1.4-1.5
						l79.7-45.8c1.2-0.6,2.7-0.6,4,0l7.9,4.4C401,172.6,401.7,173.7,401.9,174.9z"/>
					<path class="st3" d="M400,174.2L320.3,220c-1.2,0.8-1.9,2-2,3.4V268c0,1.3,0.9,1.8,2,1.1l79.7-45.8c1.2-0.8,1.9-2,2-3.4v-44.5
						C402,174,401.1,173.5,400,174.2z"/>
				</g>
			</g>
		</g>
		<path class="st36" d="M338,231.5c0,0.4,0,0.8,0,1.5s0,1.2,0,1.9c0,0.6,0,1.3,0,1.9s0,1.1,0,1.5c0,0.5,0.1,1,0.2,1.4
			c0.1,0.4,0.3,0.8,0.6,1.1c0.3,0.3,0.6,0.4,1,0.4c0.5,0,1-0.2,1.5-0.5c0.6-0.3,1.1-0.7,1.5-1.1c0.7-0.7,1.2-1.6,1.5-2.6
			c0.1-0.4,0.2-0.8,0.3-1.2c0.1-0.4,0.2-0.7,0.3-1c0.1-0.3,0.3-0.5,0.6-0.6l3.2-1.9c0.1-0.1,0.3-0.1,0.4,0c0.1,0.1,0.2,0.3,0.2,0.5
			c0,1.4-0.2,2.8-0.6,4.1c-0.4,1.4-1,2.8-1.7,4c-0.7,1.3-1.6,2.4-2.5,3.5c-0.9,1-1.9,1.9-3.1,2.6c-1,0.6-2.1,1-3.3,1
			c-0.9,0-1.8-0.3-2.5-0.9c-0.7-0.7-1.3-1.5-1.6-2.5c-0.4-1.2-0.6-2.5-0.6-3.7c0-1.1,0-2.2,0-3.4c0-1.2,0-2.4,0-3.5
			c0-1.5,0.2-3,0.6-4.4c0.4-1.5,0.9-2.9,1.6-4.3c0.7-1.3,1.5-2.6,2.5-3.7c0.9-1.1,2-2,3.3-2.7c0.9-0.6,2-0.9,3.1-1
			c0.9-0.1,1.8,0.1,2.5,0.6c0.8,0.5,1.3,1.2,1.7,2.1c0.4,1.1,0.7,2.2,0.6,3.4c0,0.2-0.1,0.5-0.2,0.7c-0.1,0.2-0.2,0.4-0.4,0.5
			l-3.3,1.9c-0.3,0.2-0.5,0.2-0.6,0.1c-0.1-0.2-0.2-0.5-0.3-0.7c-0.1-0.3-0.2-0.6-0.3-0.9c-0.1-0.3-0.3-0.5-0.5-0.7
			c-0.3-0.2-0.6-0.3-0.9-0.2c-0.5,0-1,0.2-1.5,0.5c-0.6,0.3-1.1,0.7-1.5,1.2c-0.4,0.5-0.7,1-1,1.6c-0.3,0.6-0.4,1.2-0.6,1.8
			C338.1,230.2,338,230.8,338,231.5z"/>
		<path class="st36" d="M359.7,208.1c0.9-0.6,1.9-0.9,3-1c0.8-0.1,1.6,0.1,2.4,0.5c0.7,0.4,1.2,0.9,1.6,1.6c0.4,0.7,0.6,1.5,0.6,2.2
			c0,0.2-0.1,0.5-0.2,0.7c-0.1,0.2-0.2,0.3-0.4,0.5l-3.3,1.9c-0.2,0.1-0.4,0.2-0.6,0.2c-0.2,0-0.3-0.1-0.4-0.2l-0.2-0.3
			c-0.1-0.1-0.3-0.2-0.5-0.3c-0.3-0.1-0.5-0.1-0.8,0c-0.4,0.1-0.8,0.2-1.1,0.4c-0.3,0.2-0.6,0.4-0.9,0.6c-0.3,0.2-0.5,0.5-0.8,0.8
			c-0.2,0.3-0.4,0.6-0.6,0.9c-0.1,0.4-0.2,0.7-0.2,1.1c0,0.3,0.1,0.6,0.3,0.8c0.2,0.2,0.5,0.3,0.8,0.3c0.5,0,1-0.1,1.5-0.2l2.3-0.6
			c0.8-0.2,1.6-0.3,2.4-0.3c0.6,0,1.3,0.3,1.7,0.7c0.5,0.5,0.9,1.1,1,1.7c0.2,1,0.4,2,0.3,3c0,1.3-0.2,2.6-0.6,3.9
			c-0.4,1.3-0.9,2.5-1.6,3.6c-0.7,1.1-1.5,2.2-2.5,3.1c-0.9,0.9-2,1.7-3.1,2.4c-1,0.6-2,1-3.1,1.1c-0.8,0.1-1.7,0-2.5-0.4
			c-0.7-0.4-1.3-1-1.6-1.7c-0.4-0.8-0.6-1.7-0.7-2.6c0-0.2,0.1-0.5,0.2-0.7c0.1-0.2,0.2-0.4,0.4-0.5l3.3-1.9
			c0.2-0.1,0.4-0.2,0.6-0.2c0.1,0,0.3,0.1,0.4,0.2c0.1,0.1,0.2,0.2,0.3,0.3c0.2,0.2,0.3,0.3,0.5,0.4c0.3,0.1,0.6,0.2,0.9,0.1
			c0.5-0.1,0.9-0.2,1.3-0.5c0.8-0.5,1.6-1.1,2.3-1.7c0.6-0.6,0.9-1.4,0.9-2.2c0-0.3-0.1-0.6-0.3-0.8c-0.3-0.1-0.7-0.2-1-0.1
			c-0.6,0.1-1.1,0.2-1.7,0.3c-0.7,0.2-1.5,0.4-2.4,0.6c-1.3,0.5-2.8,0.3-3.8-0.7c-1-1.4-1.4-3-1.2-4.7c0-1.2,0.2-2.4,0.5-3.5
			c0.4-1.2,0.9-2.4,1.5-3.5c0.6-1.1,1.4-2.2,2.3-3.2C357.5,209.6,358.5,208.8,359.7,208.1z"/>
		<path class="st36" d="M378.1,197.5c0.9-0.6,1.9-0.9,3-1c0.8-0.1,1.6,0.1,2.4,0.5c0.6,0.4,1.1,0.9,1.5,1.6c0.4,0.7,0.6,1.5,0.6,2.3
			c0,0.2-0.1,0.5-0.2,0.7c-0.1,0.2-0.2,0.4-0.4,0.5l-3.3,1.9c-0.2,0.1-0.4,0.2-0.6,0.2c-0.2,0-0.3-0.1-0.4-0.2l-0.2-0.3
			c-0.1-0.1-0.3-0.2-0.5-0.3c-0.3-0.1-0.5-0.1-0.8,0c-0.4,0.1-0.8,0.2-1.1,0.4c-0.3,0.2-0.6,0.4-0.9,0.6c-0.3,0.2-0.6,0.5-0.8,0.8
			c-0.2,0.3-0.4,0.6-0.5,0.9c-0.1,0.4-0.2,0.7-0.2,1.1c0,0.3,0.1,0.6,0.2,0.8c0.2,0.2,0.5,0.3,0.8,0.3c0.5,0,1-0.1,1.5-0.2l2.3-0.6
			c0.8-0.3,1.7-0.4,2.6-0.4c0.6,0,1.2,0.3,1.7,0.7c0.5,0.5,0.9,1.1,1,1.8c0.2,1,0.4,2,0.3,3c0,1.3-0.2,2.6-0.6,3.9
			c-0.4,1.3-0.9,2.5-1.6,3.6c-0.7,1.1-1.5,2.2-2.5,3.1c-0.9,0.9-2,1.7-3.1,2.4c-1,0.6-2,1-3.1,1.1c-0.8,0.1-1.7-0.1-2.5-0.4
			c-0.7-0.4-1.3-1-1.6-1.7c-0.4-0.8-0.6-1.7-0.6-2.6c0-0.2,0.1-0.5,0.2-0.7c0.1-0.2,0.2-0.4,0.4-0.5l3.3-1.9
			c0.2-0.1,0.4-0.2,0.6-0.2c0.1,0,0.3,0.1,0.4,0.2c0.1,0.1,0.2,0.2,0.3,0.3c0.2,0.2,0.3,0.3,0.5,0.4c0.3,0.1,0.6,0.2,0.9,0.1
			c0.5-0.1,0.9-0.2,1.3-0.5c0.8-0.5,1.6-1.1,2.3-1.8c0.6-0.6,0.9-1.3,0.9-2.1c0-0.3-0.1-0.6-0.3-0.8c-0.3-0.2-0.7-0.2-1-0.1
			c-0.6,0.1-1.1,0.2-1.7,0.3c-0.7,0.2-1.5,0.4-2.4,0.6c-1.3,0.5-2.8,0.3-3.8-0.7c-0.9-1.4-1.4-3-1.2-4.7c0-1.2,0.2-2.4,0.5-3.5
			c0.4-1.2,0.9-2.4,1.5-3.5c0.6-1.1,1.4-2.2,2.3-3.2C376,199,377,198.2,378.1,197.5z"/>
	</g>
	<g id="freepik--text-box--inject-3_4_">
		<g id="freepik----inject-3_5_">
			<g id="freepik--speech-bubble--inject-3_6_">
				<g id="freepik--speach-bubble--inject-3_4_">
					<path class="st10" d="M388.1,259.9l-79.7,45.8c-1.2,0.8-1.9,2-2,3.4v44.5c0.1,1.4,0.8,2.7,2,3.4l7.9,4.4c1.2,0.6,2.7,0.6,4,0
						l79.7-45.8c1.2-0.8,1.9-2,2-3.4v-44.5c-0.1-1.4-0.8-2.7-2-3.4l-7.9-4.4C390.9,259.2,389.4,259.3,388.1,259.9z"/>
					<path class="st4" d="M401.9,267.4c-0.1-1-1-1.3-2-0.8l-79.7,45.8c-0.6,0.4-1.1,0.9-1.4,1.5l-11.8-6.8c0.3-0.6,0.8-1.1,1.4-1.4
						l79.7-45.8c1.2-0.6,2.7-0.6,4,0l7.9,4.4C401,265,401.8,266.1,401.9,267.4z"/>
					<path class="st3" d="M400,266.6l-79.7,45.8c-1.2,0.8-1.9,2-2,3.4v44.5c0,1.3,0.9,1.8,2,1.1l79.7-45.8c1.2-0.8,1.9-2,2-3.4
						v-44.6C402,266.5,401.1,266,400,266.6z"/>
				</g>
			</g>
		</g>
		<path class="st36" d="M338.4,313.3c0.1-0.1,0.3-0.1,0.5,0c0.2,0.2,0.2,0.4,0.2,0.6v25.3c0,0.3-0.1,0.6-0.2,0.9
			c-0.1,0.2-0.3,0.5-0.5,0.6l-3.3,1.9c-0.1,0.1-0.4,0.1-0.5,0c-0.1-0.2-0.2-0.4-0.2-0.6v-9.6l-5.6,3.3v9.6c0,0.3-0.1,0.6-0.2,0.9
			c-0.1,0.2-0.3,0.4-0.5,0.6l-3.3,1.9c-0.1,0.1-0.3,0.1-0.5,0c-0.2-0.2-0.2-0.4-0.2-0.7v-25.3c0-0.3,0.1-0.6,0.2-0.9
			c0.1-0.2,0.3-0.4,0.5-0.6l3.3-1.9c0.1-0.1,0.3-0.1,0.5,0c0.1,0.2,0.2,0.4,0.2,0.6v9.4l5.6-3.3v-9.4c0-0.3,0.1-0.6,0.2-0.9
			c0.1-0.2,0.3-0.4,0.5-0.6L338.4,313.3z"/>
		<path class="st36" d="M357,302.5c0.1-0.1,0.4-0.1,0.5,0c0.1,0.2,0.2,0.4,0.2,0.6v4.2c0,0.3-0.1,0.6-0.2,0.9
			c-0.1,0.2-0.3,0.5-0.5,0.6l-4.4,2.6v20.1c0,0.3-0.1,0.6-0.2,0.9c-0.1,0.2-0.3,0.4-0.5,0.6l-3.3,1.9c-0.1,0.1-0.3,0.1-0.5,0
			c-0.2-0.2-0.2-0.4-0.2-0.6v-20.1l-4.4,2.6c-0.1,0.1-0.3,0.1-0.5,0c-0.1-0.2-0.2-0.4-0.2-0.6v-4.1c0-0.3,0.1-0.6,0.2-0.9
			c0.1-0.2,0.3-0.4,0.5-0.6L357,302.5z"/>
		<path class="st36" d="M368.7,316.3c-0.1-0.1-0.3-0.3-0.4-0.4l-2.4-5.1v13c0,0.3-0.1,0.6-0.2,0.9c-0.1,0.2-0.3,0.5-0.5,0.6
			l-3.3,1.9c-0.1,0.1-0.4,0.1-0.5,0c-0.1-0.2-0.2-0.4-0.2-0.6v-25.3c0-0.3,0.1-0.6,0.2-0.9c0.1-0.2,0.3-0.4,0.5-0.6l3-1.7
			c0.3-0.2,0.6-0.2,0.8,0c0.1,0.1,0.2,0.3,0.3,0.4l4.1,8.5l4.1-13.2c0.1-0.3,0.2-0.6,0.3-0.8c0.2-0.4,0.4-0.7,0.8-0.9l3-1.7
			c0.1-0.1,0.3-0.1,0.5,0c0.2,0.2,0.2,0.4,0.2,0.6v25.3c0,0.3-0.1,0.6-0.2,0.9c-0.1,0.2-0.3,0.4-0.5,0.6l-3.3,1.9
			c-0.1,0.1-0.3,0.1-0.5,0c-0.1-0.2-0.2-0.4-0.2-0.6v-13l-2.4,7.9c-0.1,0.3-0.2,0.6-0.3,0.8c-0.1,0.3-0.3,0.5-0.6,0.7l-1.6,0.9
			C369,316.5,368.8,316.5,368.7,316.3z"/>
		<path class="st36" d="M396.3,301c0.1-0.1,0.3-0.1,0.5,0c0.2,0.2,0.2,0.4,0.2,0.6v4.2c0,0.3-0.1,0.6-0.2,0.9
			c-0.1,0.2-0.3,0.5-0.5,0.6l-11.8,6.8c-0.1,0.1-0.3,0.1-0.5,0c-0.1-0.2-0.2-0.4-0.2-0.6v-25.3c0-0.3,0.1-0.6,0.2-0.9
			c0.1-0.2,0.3-0.5,0.5-0.6l3.3-1.9c0.1-0.1,0.4-0.1,0.5,0c0.1,0.2,0.2,0.4,0.2,0.6v20.1L396.3,301z"/>
	</g>
	<g id="freepik--text-box--inject-3_3_">
		<g id="freepik----inject-3_4_">
			<g id="freepik--speech-bubble--inject-3_5_">
				<g id="freepik--speach-bubble--inject-3_3_">
					<path class="st10" d="M388.1,352.3l-79.7,45.9c-1.2,0.8-1.9,2-2,3.4v44.5c0.1,1.4,0.8,2.7,2,3.4l7.9,4.4c1.2,0.6,2.7,0.6,4,0
						l79.7-45.9c1.2-0.8,1.9-2,2-3.4v-44.5c-0.1-1.4-0.8-2.7-2-3.4l-7.9-4.4C390.9,351.7,389.4,351.7,388.1,352.3z"/>
					<path class="st4" d="M401.9,359.8c-0.1-1-1-1.3-2-0.8l-79.7,45.8c-0.6,0.4-1.1,0.9-1.4,1.5l-11.8-6.8c0.3-0.6,0.8-1.1,1.4-1.5
						l79.7-45.8c1.2-0.6,2.7-0.6,4,0l7.9,4.4C401,357.4,401.8,358.5,401.9,359.8z"/>
					<path class="st3" d="M400,359l-79.7,45.8c-1.2,0.8-1.9,2-2,3.4v44.5c0,1.3,0.9,1.8,2,1.2L400,408c1.2-0.8,1.9-2,2-3.4v-44.4
						C402,358.9,401.1,358.4,400,359z"/>
				</g>
			</g>
		</g>
		<path class="st36" d="M339.6,415.5c0,0.4,0,0.8,0,1.5s0,1.2,0,1.9s0,1.3,0,1.9s0,1.1,0,1.5c0,0.5,0.1,1.1,0.2,1.6
			c0.1,0.4,0.3,0.8,0.6,1.1c0.3,0.3,0.6,0.4,1,0.4c0.5,0,1-0.2,1.5-0.5c0.5-0.3,1-0.7,1.5-1.1c0.3-0.4,0.7-0.8,0.9-1.3
			c0.2-0.4,0.4-0.9,0.5-1.3c0.1-0.4,0.2-0.8,0.3-1.2c0.1-0.4,0.2-0.7,0.3-1c0.1-0.2,0.3-0.5,0.6-0.6l3.3-1.9c0.1-0.1,0.3-0.1,0.4,0
			c0.1,0.1,0.2,0.3,0.2,0.5c0,1.4-0.2,2.8-0.6,4.1c-0.4,1.4-1,2.8-1.7,4c-0.7,1.3-1.5,2.4-2.5,3.5c-0.9,1-1.9,1.9-3.1,2.6
			c-1,0.6-2.1,1-3.3,1c-0.9,0-1.8-0.3-2.5-0.9c-0.7-0.7-1.3-1.5-1.6-2.5c-0.4-1.2-0.6-2.5-0.6-3.7c0-1.1,0-2.2,0-3.4
			c0-1.2,0-2.4,0-3.5c0-1.5,0.2-3,0.6-4.4c0.4-1.5,0.9-2.9,1.6-4.3c0.7-1.3,1.5-2.6,2.5-3.7c0.9-1.1,2-2,3.3-2.7
			c0.9-0.6,2-0.9,3.1-1c0.9-0.1,1.7,0.1,2.5,0.6c0.8,0.5,1.4,1.2,1.7,2.1c0.4,1.1,0.7,2.2,0.6,3.4c0,0.2-0.1,0.5-0.2,0.7
			c-0.1,0.2-0.2,0.4-0.4,0.5l-3.3,1.9c-0.3,0.2-0.5,0.2-0.6,0.1c-0.1-0.2-0.2-0.5-0.3-0.7c-0.1-0.3-0.2-0.6-0.3-0.9
			c-0.1-0.3-0.3-0.5-0.5-0.7c-0.3-0.2-0.6-0.3-0.9-0.2c-0.5,0-1,0.2-1.5,0.5c-0.6,0.3-1.1,0.7-1.5,1.2c-0.4,0.5-0.7,1-1,1.6
			c-0.3,0.6-0.4,1.2-0.6,1.8C339.7,414.3,339.6,414.9,339.6,415.5z"/>
		<path class="st36" d="M362.9,410.2v6.5c0,0.3-0.1,0.6-0.2,0.9c-0.1,0.2-0.3,0.4-0.5,0.6L359,420c-0.1,0.1-0.3,0.1-0.5,0
			c-0.2-0.2-0.2-0.4-0.2-0.6v-6.5l-3.9,2.3c-0.1,0.1-0.3,0.1-0.5,0c-0.2-0.2-0.2-0.4-0.2-0.6v-4c0-0.3,0.1-0.6,0.2-0.9
			c0.1-0.2,0.3-0.5,0.5-0.6l3.9-2.3v-6.5c0-0.3,0.1-0.6,0.2-0.9c0.1-0.2,0.3-0.4,0.5-0.6l3.2-1.8c0.1-0.1,0.3-0.1,0.5,0
			c0.1,0.2,0.2,0.4,0.2,0.6v6.5l3.9-2.3c0.1-0.1,0.4-0.1,0.5,0c0.1,0.2,0.2,0.4,0.2,0.6v4c0,0.3-0.1,0.6-0.2,0.9
			c-0.1,0.2-0.3,0.5-0.5,0.6L362.9,410.2z"/>
		<path class="st36" d="M379.8,400.5v6.5c0,0.3-0.1,0.6-0.2,0.9c-0.1,0.2-0.3,0.4-0.5,0.6l-3.2,1.8c-0.1,0.1-0.3,0.1-0.5,0
			c-0.1-0.2-0.2-0.4-0.2-0.6v-6.5l-3.9,2.3c-0.1,0.1-0.3,0.1-0.5,0c-0.1-0.2-0.2-0.4-0.2-0.6v-4c0-0.3,0.1-0.6,0.2-0.9
			c0.1-0.2,0.3-0.4,0.5-0.6l3.9-2.3v-6.5c0-0.3,0.1-0.6,0.2-0.9c0.1-0.2,0.3-0.4,0.5-0.6l3.2-1.8c0.1-0.1,0.3-0.1,0.5,0
			c0.2,0.2,0.2,0.4,0.2,0.6v6.5l3.9-2.3c0.1-0.1,0.3-0.1,0.5,0c0.1,0.2,0.2,0.4,0.2,0.6v3.9c0,0.3-0.1,0.6-0.2,0.9
			c-0.1,0.2-0.3,0.4-0.5,0.6L379.8,400.5z"/>
	</g>
</g>
<linearGradient id="SVGID_2_" gradientUnits="userSpaceOnUse" x1="375.4417" y1="856.3636" x2="495.68" y2="976.6019">
	<stop  offset="0" style="stop-color:#D175D4"/>
	<stop  offset="1" style="stop-color:#7E57C2"/>
</linearGradient>
<circle class="st37" cx="435.6" cy="916.5" r="85"/>
</svg>
